<svg width="760" height="399" viewBox="0 0 760 399" fill="none" xmlns="http://www.w3.org/2000/svg">
<g filter="url(#filter0_d_237_81)">
<rect y="17" width="654" height="370" rx="60" fill="#37A8EE"/>
</g>
<rect x="228" y="46" width="193" height="311" rx="20" fill="#FE4495"/>
<rect x="18" y="46" width="194" height="311" rx="20" fill="#FE4495"/>
<rect x="438" y="46" width="193" height="311" rx="20" fill="#FE4495"/>
<rect x="712" y="51" width="25" height="144" fill="#FE4495"/>
<g filter="url(#filter1_d_237_81)">
<circle cx="724" cy="32" r="30" fill="#FD891C"/>
</g>
<path d="M661 187H737V192C737 203.046 728.046 212 717 212H661V187Z" fill="#FE4495"/>
<path d="M39.6722 292.9L24.6001 104.476L204.6 104.855L188.663 292.9L115.279 314.636L39.6722 292.9Z" fill="#E9CA32"/>
<path d="M116.748 177.132L117.43 182.1L122.26 182.971L117.852 185.17L118.534 190.138L115.128 186.529L110.72 188.728L113.022 184.299L109.616 180.69L114.445 181.562L116.748 177.132Z" fill="#C77B32"/>
<path d="M112.257 288.069L116.283 293.34L122.428 291.052L118.771 296.597L122.797 301.868L116.511 300.025L112.855 305.57L112.627 298.885L106.341 297.041L112.485 294.754L112.257 288.069Z" fill="#C77B32"/>
<path d="M77.7002 296.439V122.421L151.825 122.674L138.607 278.367L77.7002 296.439Z" fill="#FFDE25"/>
<path d="M107.284 143.083H87.6871V258.905L72.4452 255.936V240.344L54.3 237.374V272.269L107.284 286.376V143.083ZM121.984 143.083H176.236L172.607 165.283H142.695V201.712H172.607L168.977 275.239L121.984 286.376V263.36L153.736 252.223L155.569 221.783L121.984 226.757V143.083Z" fill="white"/>
<path d="M113.097 142.33L115.527 144.568L118.358 142.895L117.029 145.951L119.458 148.189L116.207 147.839L114.877 150.894L114.197 147.623L110.946 147.273L113.777 145.601L113.097 142.33Z" fill="#C77B32"/>
<path d="M144.316 192.764L174.986 181.345L177.306 187.864L151.982 197.293L156.685 210.511L151.339 212.502L144.316 192.764ZM177.865 238.243C174.52 239.489 171.448 239.911 168.648 239.509C165.852 239.118 163.445 238.059 161.429 236.332C159.426 234.611 157.94 232.391 156.973 229.671C155.998 226.931 155.742 224.241 156.205 221.602C156.668 218.963 157.847 216.575 159.744 214.436C161.64 212.298 164.255 210.608 167.59 209.367C170.935 208.122 174.005 207.695 176.801 208.086C179.597 208.477 181.997 209.533 184 211.254C186.013 212.971 187.507 215.199 188.482 217.939C189.45 220.659 189.702 223.339 189.239 225.978C188.789 228.623 187.617 231.015 185.72 233.153C183.828 235.301 181.209 236.998 177.865 238.243ZM175.513 231.634C177.679 230.827 179.39 229.821 180.646 228.615C181.905 227.418 182.71 226.09 183.061 224.629C183.412 223.169 183.307 221.651 182.746 220.075C182.185 218.499 181.312 217.267 180.125 216.379C178.939 215.491 177.485 214.998 175.766 214.899C174.049 214.811 172.108 215.17 169.942 215.976C167.775 216.783 166.062 217.784 164.803 218.981C163.548 220.187 162.745 221.52 162.394 222.981C162.043 224.441 162.148 225.959 162.708 227.535C163.269 229.111 164.143 230.343 165.329 231.231C166.516 232.119 167.967 232.608 169.683 232.696C171.403 232.795 173.346 232.441 175.513 231.634ZM188.653 236.771L193.999 234.781L203.01 260.104L197.663 262.095L194.304 252.655L168.98 262.083L166.688 255.64L192.012 246.211L188.653 236.771ZM201.624 284.285C202.789 283.715 203.544 282.849 203.888 281.686C204.232 280.524 204.125 279.16 203.568 277.594C203.19 276.53 202.72 275.687 202.16 275.066C201.61 274.441 201.005 274.03 200.347 273.832C199.692 273.644 199.035 273.672 198.376 273.918C197.82 274.102 197.382 274.396 197.062 274.799C196.745 275.212 196.518 275.701 196.379 276.264C196.25 276.823 196.181 277.44 196.172 278.114C196.173 278.784 196.219 279.484 196.308 280.212L196.635 283.227C196.814 284.684 196.854 286.067 196.755 287.377C196.655 288.687 196.388 289.889 195.952 290.984C195.516 292.078 194.884 293.035 194.056 293.855C193.232 294.684 192.183 295.342 190.909 295.828C189.028 296.517 187.229 296.641 185.512 296.2C183.809 295.766 182.26 294.797 180.865 293.293C179.484 291.795 178.347 289.792 177.455 287.282C176.569 284.793 176.177 282.484 176.279 280.355C176.384 278.235 176.996 276.382 178.116 274.794C179.249 273.213 180.91 271.986 183.099 271.115L185.343 277.423C184.34 277.876 183.587 278.492 183.084 279.27C182.594 280.055 182.332 280.954 182.296 281.967C182.275 282.987 182.464 284.059 182.864 285.183C183.257 286.287 183.758 287.186 184.366 287.88C184.979 288.584 185.65 289.056 186.38 289.296C187.109 289.536 187.844 289.518 188.583 289.243C189.271 288.987 189.777 288.565 190.1 287.979C190.426 287.403 190.615 286.662 190.666 285.756C190.72 284.861 190.683 283.801 190.552 282.576L190.196 278.907C189.9 276.073 190.153 273.654 190.955 271.651C191.758 269.647 193.294 268.228 195.564 267.395C197.417 266.693 199.216 266.586 200.961 267.073C202.709 267.57 204.287 268.557 205.695 270.033C207.102 271.51 208.206 273.372 209.005 275.621C209.82 277.909 210.141 280.051 209.969 282.048C209.801 284.054 209.193 285.792 208.145 287.262C207.096 288.733 205.664 289.823 203.847 290.533L201.624 284.285Z" fill="#C77B32"/>
<path d="M249.372 292.9L234.3 104.476L414.3 104.855L398.363 292.9L324.979 314.636L249.372 292.9Z" fill="#E9CA32"/>
<path d="M326.448 177.132L327.13 182.1L331.96 182.971L327.552 185.17L328.234 190.138L324.828 186.529L320.42 188.728L322.722 184.299L319.315 180.69L324.145 181.562L326.448 177.132Z" fill="#C77B32"/>
<path d="M321.957 288.069L325.983 293.34L332.128 291.052L328.471 296.597L332.497 301.868L326.211 300.025L322.555 305.57L322.326 298.885L316.041 297.041L322.185 294.754L321.957 288.069Z" fill="#C77B32"/>
<path d="M287.4 296.439V122.421L361.525 122.674L348.307 278.367L287.4 296.439Z" fill="#FFDE25"/>
<path d="M316.984 143.083H297.387V258.905L282.145 255.936V240.344L264 237.374V272.269L316.984 286.376V143.083ZM331.684 143.083H385.935L382.306 165.283H352.395V201.712H382.306L378.677 275.239L331.684 286.376V263.36L363.435 252.223L365.269 221.783L331.684 226.757V143.083Z" fill="white"/>
<path d="M322.797 142.33L325.227 144.568L328.058 142.895L326.728 145.951L329.158 148.189L325.907 147.839L324.577 150.894L323.897 147.623L320.645 147.273L323.477 145.601L322.797 142.33Z" fill="#C77B32"/>
<path d="M350.802 192.51L381.472 181.091L383.792 187.61L358.468 197.038L363.171 210.257L357.825 212.247L350.802 192.51ZM384.351 237.989C381.006 239.234 377.934 239.656 375.134 239.255C372.338 238.864 369.932 237.805 367.915 236.077C365.912 234.357 364.427 232.136 363.459 229.416C362.484 226.676 362.228 223.987 362.691 221.348C363.154 218.709 364.334 216.32 366.23 214.182C368.126 212.044 370.741 210.354 374.076 209.112C377.421 207.867 380.491 207.44 383.287 207.831C386.083 208.222 388.483 209.278 390.486 210.999C392.499 212.716 393.993 214.945 394.968 217.685C395.936 220.405 396.188 223.084 395.725 225.723C395.276 228.369 394.103 230.76 392.207 232.898C390.314 235.047 387.695 236.743 384.351 237.989ZM381.999 231.379C384.165 230.573 385.876 229.566 387.132 228.36C388.391 227.164 389.196 225.835 389.547 224.375C389.898 222.914 389.793 221.396 389.232 219.82C388.671 218.244 387.798 217.013 386.611 216.124C385.425 215.236 383.971 214.743 382.252 214.644C380.536 214.556 378.594 214.915 376.428 215.722C374.261 216.528 372.548 217.53 371.289 218.726C370.034 219.932 369.231 221.266 368.88 222.726C368.529 224.187 368.634 225.705 369.195 227.281C369.755 228.856 370.629 230.088 371.815 230.976C373.002 231.865 374.453 232.353 376.17 232.441C377.889 232.54 379.832 232.186 381.999 231.379ZM395.139 236.517L400.485 234.526L409.496 259.849L404.149 261.84L400.791 252.4L375.466 261.829L373.174 255.385L398.498 245.956L395.139 236.517ZM408.11 284.031C409.276 283.46 410.03 282.594 410.374 281.432C410.718 280.269 410.611 278.905 410.054 277.339C409.676 276.275 409.206 275.433 408.646 274.812C408.096 274.187 407.492 273.775 406.833 273.577C406.178 273.389 405.521 273.418 404.862 273.663C404.306 273.847 403.868 274.141 403.548 274.544C403.231 274.958 403.004 275.446 402.865 276.009C402.736 276.569 402.667 277.185 402.658 277.859C402.659 278.53 402.705 279.229 402.794 279.957L403.121 282.973C403.3 284.429 403.34 285.812 403.241 287.122C403.141 288.432 402.874 289.635 402.438 290.729C402.002 291.823 401.37 292.78 400.542 293.6C399.718 294.43 398.669 295.088 397.395 295.573C395.514 296.262 393.715 296.386 391.998 295.946C390.295 295.511 388.746 294.542 387.351 293.038C385.97 291.54 384.834 289.537 383.941 287.028C383.055 284.539 382.663 282.229 382.765 280.1C382.87 277.981 383.482 276.127 384.602 274.54C385.736 272.958 387.396 271.732 389.585 270.86L391.83 277.168C390.826 277.621 390.073 278.237 389.57 279.016C389.08 279.8 388.818 280.699 388.783 281.713C388.761 282.732 388.95 283.804 389.35 284.928C389.743 286.033 390.244 286.932 390.853 287.626C391.465 288.33 392.136 288.802 392.866 289.041C393.596 289.281 394.33 289.264 395.069 288.989C395.758 288.732 396.263 288.311 396.586 287.724C396.913 287.148 397.101 286.407 397.152 285.502C397.207 284.606 397.169 283.546 397.038 282.322L396.682 278.652C396.386 275.818 396.639 273.4 397.442 271.396C398.244 269.392 399.78 267.974 402.05 267.14C403.903 266.439 405.702 266.331 407.447 266.818C409.196 267.315 410.773 268.302 412.181 269.779C413.588 271.255 414.692 273.118 415.492 275.366C416.306 277.655 416.627 279.797 416.456 281.793C416.288 283.799 415.679 285.538 414.631 287.008C413.582 288.478 412.15 289.568 410.334 290.279L408.11 284.031Z" fill="#C77B32"/>
<path d="M459.072 296.583L444 108.159L624 108.537L608.063 296.583L534.679 318.319L459.072 296.583Z" fill="#E9CA32"/>
<path d="M536.147 180.815L536.83 185.783L541.66 186.654L537.252 188.853L537.934 193.821L534.528 190.212L530.12 192.411L532.422 187.982L529.015 184.373L533.845 185.244L536.147 180.815Z" fill="#C77B32"/>
<path d="M531.657 291.752L535.683 297.022L541.827 294.735L538.171 300.28L542.197 305.551L535.911 303.707L532.255 309.252L532.026 302.568L525.741 300.724L531.885 298.436L531.657 291.752Z" fill="#C77B32"/>
<path d="M497.1 300.122V126.104L571.225 126.356L558.007 282.049L497.1 300.122Z" fill="#FFDE25"/>
<path d="M526.684 146.766H507.087V262.588L491.845 259.618V244.027L473.7 241.057V275.952L526.684 290.058V146.766ZM541.384 146.766H595.635L592.006 168.965H562.094V205.394H592.006L588.377 278.922L541.384 290.058V267.043L573.135 255.906L574.969 225.466L541.384 230.44V146.766Z" fill="white"/>
<path d="M532.497 146.012L534.927 148.25L537.758 146.578L536.428 149.633L538.858 151.871L535.607 151.522L534.277 154.577L533.597 151.305L530.345 150.956L533.177 149.284L532.497 146.012Z" fill="#C77B32"/>
<path d="M565.852 193.651L596.523 182.232L598.842 188.751L573.518 198.18L578.222 211.399L572.875 213.389L565.852 193.651ZM599.401 239.131C596.057 240.376 592.984 240.798 590.185 240.397C587.388 240.006 584.982 238.946 582.965 237.219C580.963 235.498 579.477 233.278 578.509 230.558C577.534 227.818 577.278 225.128 577.741 222.489C578.204 219.851 579.384 217.462 581.28 215.324C583.177 213.186 585.792 211.496 589.127 210.254C592.471 209.009 595.542 208.582 598.338 208.973C601.134 209.364 603.534 210.42 605.537 212.141C607.549 213.858 609.043 216.087 610.018 218.827C610.986 221.547 611.239 224.226 610.776 226.865C610.326 229.51 609.153 231.902 607.257 234.04C605.364 236.189 602.746 237.885 599.401 239.131ZM597.049 232.521C599.216 231.715 600.927 230.708 602.182 229.502C603.441 228.306 604.246 226.977 604.597 225.517C604.948 224.056 604.843 222.538 604.283 220.962C603.722 219.386 602.848 218.154 601.662 217.266C600.475 216.378 599.022 215.885 597.302 215.786C595.586 215.698 593.645 216.057 591.478 216.864C589.312 217.67 587.599 218.672 586.34 219.868C585.084 221.074 584.281 222.407 583.93 223.868C583.579 225.329 583.684 226.847 584.245 228.423C584.806 229.998 585.679 231.23 586.866 232.118C588.053 233.007 589.504 233.495 591.22 233.583C592.94 233.682 594.883 233.328 597.049 232.521ZM610.19 237.659L615.536 235.668L624.546 260.991L619.2 262.982L615.841 253.542L590.517 262.971L588.224 256.527L613.548 247.098L610.19 237.659ZM623.161 285.172C624.326 284.602 625.081 283.736 625.425 282.574C625.769 281.411 625.662 280.047 625.105 278.481C624.726 277.417 624.257 276.575 623.697 275.954C623.146 275.329 622.542 274.917 621.884 274.719C621.229 274.531 620.572 274.56 619.913 274.805C619.357 274.989 618.919 275.283 618.598 275.686C618.282 276.1 618.054 276.588 617.916 277.151C617.787 277.711 617.718 278.327 617.709 279.001C617.71 279.672 617.755 280.371 617.845 281.099L618.171 284.115C618.35 285.571 618.39 286.954 618.291 288.264C618.192 289.574 617.924 290.776 617.488 291.871C617.052 292.965 616.421 293.922 615.593 294.742C614.769 295.572 613.72 296.229 612.445 296.715C610.565 297.404 608.766 297.528 607.049 297.088C605.345 296.653 603.796 295.684 602.402 294.18C601.021 292.682 599.884 290.679 598.991 288.17C598.106 285.68 597.714 283.371 597.815 281.242C597.92 279.123 598.533 277.269 599.653 275.682C600.786 274.1 602.447 272.874 604.636 272.002L606.88 278.31C605.877 278.763 605.123 279.379 604.62 280.158C604.131 280.942 603.868 281.841 603.833 282.855C603.812 283.874 604.001 284.946 604.401 286.07C604.794 287.174 605.294 288.073 605.903 288.768C606.515 289.472 607.186 289.944 607.916 290.183C608.646 290.423 609.38 290.405 610.119 290.13C610.808 289.874 611.314 289.453 611.637 288.866C611.963 288.29 612.152 287.549 612.203 286.644C612.257 285.748 612.219 284.688 612.089 283.464L611.733 279.794C611.437 276.96 611.69 274.542 612.492 272.538C613.294 270.534 614.83 269.116 617.1 268.282C618.954 267.58 620.753 267.473 622.498 267.96C624.246 268.457 625.824 269.444 627.231 270.921C628.639 272.397 629.742 274.26 630.542 276.508C631.356 278.796 631.678 280.939 631.506 282.935C631.338 284.941 630.73 286.679 629.681 288.15C628.633 289.62 627.2 290.71 625.384 291.421L623.161 285.172Z" fill="#C77B32"/>
<g filter="url(#filter2_d_237_81)">
<path d="M654 139H666C677.046 139 686 147.954 686 159V253C686 264.046 677.046 273 666 273H654V139Z" fill="#FD891C"/>
</g>
<defs>
<filter id="filter0_d_237_81" x="0" y="17" width="666" height="382" filterUnits="userSpaceOnUse" color-interpolation-filters="sRGB">
<feFlood flood-opacity="0" result="BackgroundImageFix"/>
<feColorMatrix in="SourceAlpha" type="matrix" values="0 0 0 0 0 0 0 0 0 0 0 0 0 0 0 0 0 0 127 0" result="hardAlpha"/>
<feOffset dx="8" dy="8"/>
<feGaussianBlur stdDeviation="2"/>
<feComposite in2="hardAlpha" operator="out"/>
<feColorMatrix type="matrix" values="0 0 0 0 0 0 0 0 0 0 0 0 0 0 0 0 0 0 0.25 0"/>
<feBlend mode="normal" in2="BackgroundImageFix" result="effect1_dropShadow_237_81"/>
<feBlend mode="normal" in="SourceGraphic" in2="effect1_dropShadow_237_81" result="shape"/>
</filter>
<filter id="filter1_d_237_81" x="692" y="0" width="68" height="68" filterUnits="userSpaceOnUse" color-interpolation-filters="sRGB">
<feFlood flood-opacity="0" result="BackgroundImageFix"/>
<feColorMatrix in="SourceAlpha" type="matrix" values="0 0 0 0 0 0 0 0 0 0 0 0 0 0 0 0 0 0 127 0" result="hardAlpha"/>
<feOffset dx="2" dy="2"/>
<feGaussianBlur stdDeviation="2"/>
<feComposite in2="hardAlpha" operator="out"/>
<feColorMatrix type="matrix" values="0 0 0 0 0 0 0 0 0 0 0 0 0 0 0 0 0 0 0.25 0"/>
<feBlend mode="normal" in2="BackgroundImageFix" result="effect1_dropShadow_237_81"/>
<feBlend mode="normal" in="SourceGraphic" in2="effect1_dropShadow_237_81" result="shape"/>
</filter>
<filter id="filter2_d_237_81" x="650" y="139" width="40" height="142" filterUnits="userSpaceOnUse" color-interpolation-filters="sRGB">
<feFlood flood-opacity="0" result="BackgroundImageFix"/>
<feColorMatrix in="SourceAlpha" type="matrix" values="0 0 0 0 0 0 0 0 0 0 0 0 0 0 0 0 0 0 127 0" result="hardAlpha"/>
<feOffset dy="4"/>
<feGaussianBlur stdDeviation="2"/>
<feComposite in2="hardAlpha" operator="out"/>
<feColorMatrix type="matrix" values="0 0 0 0 0 0 0 0 0 0 0 0 0 0 0 0 0 0 0.25 0"/>
<feBlend mode="normal" in2="BackgroundImageFix" result="effect1_dropShadow_237_81"/>
<feBlend mode="normal" in="SourceGraphic" in2="effect1_dropShadow_237_81" result="shape"/>
</filter>
</defs>
</svg>
