<svg width="1567" height="854" viewBox="0 0 1567 854" fill="none" xmlns="http://www.w3.org/2000/svg">
<path d="M1455.12 224.613H1465.46L1460.29 212.338L1455.12 224.613ZM1460.29 193L1432 202.957L1436.31 239.876L1460.29 253L1484.28 239.896L1488.59 202.957L1460.29 193.009V193ZM1477.95 238.773H1471.35L1467.79 230.016H1452.78L1449.23 238.773H1442.63L1460.29 199.625L1477.95 238.773Z" fill="black"/>
<path d="M579.121 517.613H589.459L584.29 505.338L579.121 517.613ZM584.29 486L556 495.957L560.31 532.876L584.29 546L608.279 532.896L612.589 495.957L584.29 486.009V486ZM601.947 531.773H595.35L591.793 523.016H576.783L573.226 531.773H566.629L584.286 492.625L601.947 531.773Z" fill="black"/>
<path d="M1079.12 222.613H1089.46L1084.29 210.338L1079.12 222.613ZM1084.29 191L1056 200.957L1060.31 237.876L1084.29 251L1108.28 237.896L1112.59 200.957L1084.29 191.009V191ZM1101.95 236.773H1095.35L1091.79 228.016H1076.78L1073.23 236.773H1066.63L1084.29 197.625L1101.95 236.773Z" fill="black"/>
<g clip-path="url(#clip0_234_102)">
<path d="M887.995 200C871.415 200 858 213.418 858 230C857.997 233.94 858.772 237.843 860.278 241.484C861.785 245.125 863.995 248.433 866.781 251.219C869.567 254.005 872.875 256.215 876.516 257.722C880.157 259.228 884.06 260.003 888 260C904.583 260 918 246.582 918 230C917.998 213.418 904.47 200 887.995 200ZM873.925 236.437C874.905 237.745 876.215 238.293 878.068 238.293C878.943 238.293 879.815 238.183 880.578 237.855C881.343 237.53 882.215 237.09 883.303 236.437L886.36 240.8C883.853 242.875 881.015 243.855 877.743 243.855C875.123 243.855 872.943 243.31 870.98 242.22C869.075 241.096 867.553 239.423 866.615 237.42C865.635 235.345 865.088 232.945 865.088 230.108C865.088 227.383 865.635 224.872 866.613 222.8C867.546 220.735 869.065 218.99 870.983 217.782C872.835 216.582 875.125 216.037 877.635 216.037C879.383 216.037 881.018 216.255 882.328 216.8C883.797 217.369 885.161 218.18 886.363 219.2L883.308 223.345C882.532 222.772 881.69 222.296 880.8 221.925C880.038 221.6 879.055 221.49 878.18 221.49C874.473 221.49 872.618 224.325 872.618 230.105C872.51 233.055 873.055 235.125 873.928 236.435H873.925V236.437ZM903.925 243.2C902.835 246.583 901.198 249.093 898.905 250.945C896.615 252.803 893.56 253.782 889.743 254.11L888.98 248.985C891.488 248.655 893.343 248.11 894.543 247.235C894.978 246.91 895.853 245.928 895.853 245.928L886.798 216.91H894.323L899.56 238.617L905.125 216.91H912.433L903.925 243.2Z" fill="black"/>
</g>
<g clip-path="url(#clip1_234_102)">
<path d="M455.996 350C442.179 350 431 361.181 431 375C430.998 378.284 431.643 381.536 432.899 384.57C434.154 387.604 435.996 390.361 438.317 392.683C440.639 395.004 443.396 396.846 446.43 398.101C449.464 399.357 452.716 400.002 456 400C469.819 400 481 388.819 481 375C480.998 361.181 469.725 350 455.996 350ZM444.271 380.365C445.088 381.454 446.179 381.91 447.723 381.91C448.452 381.91 449.179 381.819 449.815 381.546C450.452 381.275 451.179 380.908 452.085 380.365L454.633 384C452.544 385.729 450.179 386.546 447.452 386.546C445.269 386.546 443.452 386.092 441.817 385.183C440.229 384.247 438.961 382.853 438.179 381.183C437.363 379.454 436.906 377.454 436.906 375.09C436.906 372.819 437.363 370.727 438.177 369C438.955 367.279 440.221 365.825 441.819 364.819C443.363 363.819 445.271 363.365 447.363 363.365C448.819 363.365 450.181 363.546 451.273 364C452.498 364.474 453.634 365.15 454.635 366L452.09 369.454C451.443 368.977 450.742 368.58 450 368.271C449.365 368 448.546 367.908 447.817 367.908C444.727 367.908 443.181 370.271 443.181 375.087C443.092 377.546 443.546 379.271 444.273 380.362H444.271V380.365ZM469.271 386C468.363 388.819 466.998 390.91 465.088 392.454C463.179 394.002 460.633 394.819 457.452 395.092L456.817 390.821C458.906 390.546 460.452 390.092 461.452 389.362C461.815 389.092 462.544 388.273 462.544 388.273L454.998 364.092H461.269L465.633 382.181L470.271 364.092H476.36L469.271 386Z" fill="black"/>
</g>
<g clip-path="url(#clip2_234_102)">
<path d="M1302 628C1288.18 628 1277 639.181 1277 653C1277 656.284 1277.64 659.536 1278.9 662.57C1280.15 665.604 1282 668.361 1284.32 670.683C1286.64 673.004 1289.4 674.846 1292.43 676.101C1295.46 677.357 1298.72 678.002 1302 678C1315.82 678 1327 666.819 1327 653C1327 639.181 1315.73 628 1302 628ZM1290.27 658.365C1291.09 659.454 1292.18 659.91 1293.72 659.91C1294.45 659.91 1295.18 659.819 1295.81 659.546C1296.45 659.275 1297.18 658.908 1298.09 658.365L1300.63 662C1298.54 663.729 1296.18 664.546 1293.45 664.546C1291.27 664.546 1289.45 664.092 1287.82 663.183C1286.23 662.247 1284.96 660.853 1284.18 659.183C1283.36 657.454 1282.91 655.454 1282.91 653.09C1282.91 650.819 1283.36 648.727 1284.18 647C1284.95 645.279 1286.22 643.825 1287.82 642.819C1289.36 641.819 1291.27 641.365 1293.36 641.365C1294.82 641.365 1296.18 641.546 1297.27 642C1298.5 642.474 1299.63 643.15 1300.64 644L1298.09 647.454C1297.44 646.977 1296.74 646.58 1296 646.271C1295.36 646 1294.55 645.908 1293.82 645.908C1290.73 645.908 1289.18 648.271 1289.18 653.087C1289.09 655.546 1289.55 657.271 1290.27 658.362H1290.27V658.365ZM1315.27 664C1314.36 666.819 1313 668.91 1311.09 670.454C1309.18 672.002 1306.63 672.819 1303.45 673.092L1302.82 668.821C1304.91 668.546 1306.45 668.092 1307.45 667.362C1307.81 667.092 1308.54 666.273 1308.54 666.273L1301 642.092H1307.27L1311.63 660.181L1316.27 642.092H1322.36L1315.27 664Z" fill="black"/>
</g>
<g clip-path="url(#clip3_234_102)">
<path d="M1133.14 385.664L1124.44 360H1161.39L1152.66 385.738C1152.28 385.829 1151.91 385.944 1151.56 386.081L1142.94 368.495L1134.29 385.977C1133.92 385.848 1133.53 385.742 1133.14 385.664ZM1104.72 427.675C1116.34 435.838 1129.24 420.043 1146.79 418.053C1156.88 417.455 1163.73 411.283 1159.82 401.727C1152.56 406.199 1145.78 400.339 1145.83 394.459H1140.31C1140.13 399.709 1136.18 403.839 1130.06 403.225C1125.27 410.393 1119.71 414.42 1113.41 416.467C1109.15 414.501 1105.15 409.714 1106.96 403.32C1106.16 403.23 1105.39 403.032 1104.66 402.742C1098.8 413.679 1098.08 422.323 1104.72 427.675ZM1113.38 394.46C1113.38 390.306 1108.85 387.695 1105.24 389.772C1101.64 391.849 1101.64 397.07 1105.24 399.147C1108.85 401.224 1113.38 398.614 1113.38 394.46ZM1136.81 394.408C1136.81 390.254 1132.28 387.644 1128.68 389.721C1125.08 391.798 1125.08 397.019 1128.68 399.096C1132.28 401.173 1136.81 398.562 1136.81 394.408ZM1160.16 394.408C1160.16 390.254 1155.63 387.644 1152.03 389.721C1148.42 391.798 1148.42 397.019 1152.03 399.096C1155.63 401.173 1160.16 398.562 1160.16 394.408Z" fill="black"/>
</g>
<g clip-path="url(#clip4_234_102)">
<path d="M530.303 241.45L530.908 214.359L565.628 226.996L548.624 248.198C548.238 248.154 547.852 248.135 547.469 248.142L545.383 228.667L531.279 242.138C530.972 241.889 530.647 241.658 530.303 241.45ZM489.234 271.209C497.363 282.854 514.878 272.421 532.058 276.556C541.737 279.443 550.288 275.987 549.887 265.672C541.535 267.391 537.163 259.564 539.218 254.054L534.034 252.167C532.068 257.039 526.945 259.569 521.403 256.899C514.449 261.995 507.854 263.88 501.233 263.649C497.904 260.346 495.775 254.476 499.669 249.089C498.943 248.729 498.285 248.279 497.702 247.758C488.457 256.032 484.82 263.907 489.234 271.209ZM508.724 242.956C510.145 239.053 506.783 235.051 502.687 235.771C498.591 236.49 496.805 241.396 499.481 244.58C502.156 247.764 507.303 246.86 508.724 242.956ZM530.763 250.923C532.184 247.019 528.822 243.018 524.726 243.737C520.63 244.457 518.844 249.363 521.519 252.547C524.195 255.731 529.342 254.827 530.763 250.923ZM552.702 258.908C554.123 255.004 550.761 251.003 546.665 251.722C542.569 252.442 540.783 257.348 543.458 260.532C546.133 263.716 551.281 262.812 552.702 258.908Z" fill="black"/>
</g>
<path d="M1168.3 733.45L1168.91 706.359L1203.63 718.996L1186.62 740.198C1186.24 740.154 1185.85 740.135 1185.47 740.142L1183.38 720.667L1169.28 734.138C1168.97 733.889 1168.65 733.658 1168.3 733.45ZM1127.23 763.209C1135.36 774.854 1152.88 764.421 1170.06 768.556C1179.74 771.443 1188.29 767.987 1187.89 757.672C1179.53 759.391 1175.16 751.564 1177.22 746.054L1172.03 744.167C1170.07 749.039 1164.95 751.569 1159.4 748.899C1152.45 753.995 1145.85 755.88 1139.23 755.649C1135.9 752.346 1133.77 746.476 1137.67 741.089C1136.94 740.729 1136.28 740.279 1135.7 739.758C1126.46 748.032 1122.82 755.907 1127.23 763.209ZM1146.72 734.956C1148.15 731.053 1144.78 727.051 1140.69 727.771C1136.59 728.49 1134.81 733.396 1137.48 736.58C1140.16 739.764 1145.3 738.86 1146.72 734.956ZM1168.76 742.923C1170.18 739.019 1166.82 735.018 1162.73 735.737C1158.63 736.457 1156.84 741.363 1159.52 744.547C1162.19 747.731 1167.34 746.827 1168.76 742.923ZM1190.7 750.908C1192.12 747.004 1188.76 743.003 1184.66 743.722C1180.57 744.442 1178.78 749.348 1181.46 752.532C1184.13 755.716 1189.28 754.812 1190.7 750.908Z" fill="black"/>
<g clip-path="url(#clip5_234_102)">
<path d="M83.1375 551.664L74.4407 526H111.388L102.662 551.738C102.284 551.829 101.915 551.944 101.557 552.081L92.9359 534.495L84.29 551.977C83.9164 551.848 83.5318 551.742 83.1375 551.664ZM54.7237 593.675C66.3449 601.838 79.235 586.043 96.7934 584.053C106.876 583.455 113.73 577.283 109.825 567.727C102.564 572.199 95.7789 566.339 95.8264 560.459H90.3093C90.1281 565.709 86.1794 569.839 80.0583 569.225C75.2671 576.393 69.7142 580.42 63.4134 582.467C59.1547 580.501 55.147 575.714 56.9641 569.32C56.1588 569.23 55.3862 569.032 54.6597 568.742C48.8023 579.679 48.0786 588.323 54.7237 593.675ZM63.3754 560.46C63.3754 556.306 58.8474 553.695 55.2446 555.772C51.6417 557.849 51.6417 563.07 55.2446 565.147C58.8474 567.224 63.3754 564.614 63.3754 560.46ZM86.81 560.408C86.81 556.254 82.282 553.644 78.6792 555.721C75.0763 557.798 75.0763 563.019 78.6792 565.096C82.282 567.173 86.81 564.562 86.81 560.408ZM110.157 560.408C110.157 556.254 105.629 553.644 102.026 555.721C98.423 557.798 98.423 563.019 102.026 565.096C105.629 567.173 110.157 564.562 110.157 560.408Z" fill="black"/>
</g>
<path d="M219.109 623.84C219.233 624.094 219.29 624.248 219.315 624.336C219.273 624.42 219.262 624.523 219.297 624.624C219.333 624.727 219.403 624.783 219.433 624.804C219.468 624.83 219.501 624.844 219.523 624.851C219.556 624.863 219.586 624.869 219.612 624.872C219.646 624.886 219.722 624.92 219.858 624.998C220.061 625.113 220.379 625.312 220.868 625.654C221.805 626.309 223.352 627.476 225.885 629.549C222.975 632.062 218.962 633.709 215.403 634.578C213.561 635.027 211.854 635.265 210.505 635.309C209.829 635.331 209.252 635.304 208.795 635.234C208.327 635.163 208.029 635.053 207.876 634.94C207.733 634.834 207.582 634.624 207.457 634.274C207.334 633.93 207.247 633.482 207.21 632.944C207.134 631.87 207.255 630.483 207.62 628.958C208.348 625.906 210.034 622.354 212.961 619.682C214.47 618.306 215.343 617.557 215.871 617.246C216.087 617.119 216.185 617.103 216.213 617.101C216.226 617.116 216.251 617.156 216.283 617.246C216.346 617.421 216.396 617.672 216.464 618.029L216.464 618.031C216.53 618.375 216.61 618.79 216.734 619.25C216.983 620.171 217.412 621.272 218.283 622.401C218.694 623.057 218.951 623.518 219.109 623.84ZM219.331 624.413C219.331 624.413 219.331 624.412 219.331 624.411C219.331 624.412 219.331 624.413 219.331 624.413ZM216.205 617.093C216.205 617.093 216.206 617.093 216.208 617.095C216.206 617.094 216.204 617.093 216.205 617.093Z" fill="black" stroke="black" stroke-width="5"/>
<path d="M223.781 597.556C223.763 597.574 223.742 597.594 223.72 597.616C223.615 597.717 223.484 597.836 223.325 597.979C223.304 597.998 223.282 598.018 223.259 598.039C223.072 598.208 222.857 598.404 222.621 598.629C221.686 599.523 220.441 600.865 219.402 602.797C217.411 604.638 216.738 606.799 216.265 608.321C216.147 608.701 216.041 609.041 215.93 609.326C215.787 609.694 215.649 609.943 215.495 610.097C215.359 610.235 215.201 610.308 214.964 610.301C214.705 610.293 214.339 610.189 213.817 609.919C213.299 609.651 212.655 609.236 211.847 608.64C208.658 606.291 206.644 602.907 205.633 599.917C205.128 598.423 204.878 597.042 204.853 595.954C204.841 595.409 204.885 594.949 204.975 594.589C205.066 594.224 205.196 593.996 205.329 593.876C205.469 593.748 205.751 593.609 206.204 593.492C206.647 593.379 207.213 593.296 207.88 593.253C209.214 593.167 210.919 593.24 212.782 593.51C216.422 594.037 220.611 595.308 223.781 597.556Z" fill="black" stroke="black" stroke-width="5"/>
<path d="M211.119 607.033C213.331 606.917 214.664 607.005 215.446 607.262C215.827 607.388 216.048 607.545 216.181 607.712C216.313 607.878 216.386 608.088 216.405 608.377C216.426 608.672 216.388 609.026 216.314 609.459C216.266 609.737 216.206 610.031 216.14 610.352C216.103 610.532 216.064 610.721 216.025 610.92C215.81 612.01 215.599 613.326 215.679 614.853C215.759 616.381 216.102 617.574 216.426 618.501C216.506 618.731 216.586 618.946 216.659 619.143L216.662 619.151C216.734 619.346 216.799 619.522 216.855 619.684C216.971 620.022 217.033 620.263 217.038 620.446C217.043 620.609 217.004 620.705 216.921 620.788C216.819 620.889 216.618 621.003 216.227 621.11C215.444 621.323 214.101 621.454 211.881 621.57C207.53 621.798 203.135 620.62 199.811 619.13C198.15 618.386 196.77 617.569 195.804 616.823C195.32 616.449 194.95 616.1 194.702 615.794C194.444 615.477 194.354 615.251 194.347 615.119C194.34 614.987 194.406 614.756 194.628 614.419C194.843 614.094 195.175 613.714 195.617 613.3C196.499 612.472 197.788 611.535 199.363 610.641C202.515 608.852 206.766 607.261 211.119 607.033Z" fill="black" stroke="black" stroke-width="5"/>
<path d="M241.205 589.959C249.135 588.561 254.324 590.157 257.802 593.528C261.304 596.92 263.14 602.172 264.209 608.231C265.277 614.29 265.347 619.851 263.217 624.235C261.101 628.589 256.771 631.862 248.841 633.261C240.904 634.66 233.261 633.49 227.348 630.479C221.435 627.468 217.273 622.63 216.226 616.692C215.179 610.752 217.435 604.781 221.961 599.927C226.487 595.074 233.269 591.358 241.205 589.959Z" stroke="black" stroke-width="5"/>
<path d="M237.814 598.401C238.081 598.354 238.435 598.541 238.789 599.048C239.132 599.538 239.424 600.264 239.573 601.108C239.722 601.951 239.695 602.733 239.541 603.311C239.381 603.908 239.113 604.205 238.846 604.253C238.578 604.3 238.224 604.112 237.87 603.606C237.527 603.115 237.235 602.39 237.086 601.546C236.937 600.702 236.964 599.921 237.118 599.343C237.278 598.745 237.546 598.448 237.814 598.401Z" stroke="black"/>
<path d="M241.372 621.628C241.643 621.614 241.971 621.843 242.261 622.389C242.542 622.918 242.743 623.673 242.788 624.529C242.833 625.385 242.711 626.157 242.488 626.712C242.257 627.286 241.954 627.548 241.683 627.562C241.411 627.576 241.083 627.347 240.793 626.801C240.513 626.272 240.311 625.517 240.266 624.661C240.222 623.805 240.343 623.033 240.567 622.478C240.798 621.904 241.1 621.642 241.372 621.628Z" stroke="black"/>
<path d="M239.417 610.525C240.353 611.336 240.86 612.374 240.937 613.639C241.014 614.904 240.661 615.914 239.879 616.669" stroke="black" stroke-linecap="round" stroke-linejoin="round"/>
<path fill-rule="evenodd" clip-rule="evenodd" d="M234.398 621.644C233.952 622.329 233.769 623.185 233.952 624.047C234.136 624.91 234.651 625.617 235.337 626.062C236.022 626.507 236.877 626.691 237.74 626.507C238.603 626.324 239.309 625.808 239.755 625.123C240.2 624.437 240.383 623.582 240.2 622.719C240.017 621.857 239.501 621.15 238.815 620.705C238.13 620.26 237.275 620.076 236.412 620.259C235.549 620.443 234.843 620.958 234.398 621.644ZM235.751 624.652C235.632 624.091 235.99 623.538 236.552 623.419C237.114 623.299 237.666 623.658 237.785 624.22C237.905 624.781 237.546 625.334 236.984 625.453C236.423 625.572 235.87 625.214 235.751 624.652Z" fill="black"/>
<path fill-rule="evenodd" clip-rule="evenodd" d="M231.835 602.447C231.39 603.132 231.206 603.988 231.39 604.85C231.573 605.713 232.089 606.42 232.774 606.865C233.46 607.31 234.315 607.493 235.177 607.31C236.04 607.127 236.747 606.611 237.192 605.926C237.637 605.24 237.821 604.385 237.637 603.522C237.454 602.659 236.939 601.953 236.253 601.508C235.567 601.062 234.712 600.879 233.849 601.062C232.987 601.246 232.28 601.761 231.835 602.447ZM233.189 605.455C233.069 604.893 233.428 604.341 233.99 604.221C234.551 604.102 235.103 604.461 235.223 605.022C235.342 605.584 234.984 606.136 234.422 606.256C233.86 606.375 233.308 606.016 233.189 605.455Z" fill="black"/>
<path d="M249.448 628.025L258.803 615.214" stroke="black" stroke-linecap="round"/>
<path d="M249.113 618.431L257.64 624.017" stroke="black" stroke-linecap="round"/>
<path d="M243.593 594.818L256.766 603.657" stroke="black" stroke-linecap="round"/>
<path d="M246.56 603.948L252.662 595.783" stroke="black" stroke-linecap="round"/>
<path d="M220.864 611.344L229.297 617.249" stroke="black" stroke-linecap="round"/>
<path d="M228.29 611.543L222.386 619.975" stroke="black" stroke-linecap="round"/>
<path d="M68.3949 228.269C68.1152 228.226 67.9559 228.184 67.8703 228.154C67.8253 228.071 67.7477 228.003 67.6444 227.974C67.5389 227.944 67.453 227.969 67.4189 227.981C67.3777 227.996 67.3471 228.015 67.3286 228.028C67.2998 228.048 67.2774 228.07 67.2604 228.089C67.2296 228.109 67.158 228.152 67.016 228.219C66.8057 228.319 66.4597 228.466 65.8994 228.67C64.8256 229.061 62.982 229.659 59.8313 230.546C59.4414 226.721 60.3945 222.488 61.7242 219.075C62.4127 217.308 63.1968 215.774 63.9349 214.643C64.3043 214.077 64.6575 213.619 64.9765 213.285C65.3034 212.943 65.5645 212.762 65.7447 212.702C65.9139 212.645 66.1727 212.642 66.5306 212.74C66.8833 212.837 67.3 213.023 67.7621 213.3C68.6855 213.854 69.7513 214.749 70.792 215.922C72.8741 218.27 74.8167 221.688 75.3261 225.618C75.5887 227.644 75.7012 228.788 75.6531 229.399C75.6334 229.649 75.5902 229.738 75.5755 229.763C75.5557 229.764 75.5092 229.762 75.4167 229.737C75.2372 229.688 75.0028 229.584 74.6719 229.436L74.6694 229.435C74.3502 229.291 73.9643 229.118 73.5167 228.957C72.6189 228.632 71.471 228.352 70.0468 228.418C69.2737 228.378 68.7488 228.324 68.3949 228.269ZM67.7979 228.123C67.7979 228.123 67.7984 228.123 67.7994 228.124C67.7983 228.123 67.7978 228.123 67.7979 228.123ZM75.5873 229.76C75.5875 229.76 75.5864 229.761 75.5837 229.761C75.5859 229.761 75.5872 229.76 75.5873 229.76Z" fill="black" stroke="black" stroke-width="5"/>
<path d="M87.2449 247.173C87.2404 247.147 87.2356 247.119 87.2307 247.088C87.2083 246.945 87.1864 246.769 87.1599 246.557C87.1564 246.528 87.1526 246.498 87.1489 246.468C87.1177 246.218 87.0804 245.929 87.0314 245.607C86.8359 244.328 86.4499 242.538 85.4637 240.579C85.0975 237.892 83.7129 236.102 82.7382 234.841C82.4948 234.526 82.2769 234.245 82.1069 233.99C81.8876 233.662 81.7629 233.406 81.7243 233.192C81.6898 233.001 81.7208 232.83 81.8624 232.64C82.0174 232.432 82.3124 232.192 82.8332 231.919C83.3495 231.648 84.0589 231.359 85.0107 231.039C88.7638 229.775 92.6916 230.066 95.72 230.952C97.2335 231.395 98.5083 231.983 99.4142 232.587C99.8675 232.889 100.219 233.189 100.462 233.469C100.709 233.753 100.821 233.99 100.844 234.168C100.868 234.356 100.82 234.667 100.656 235.105C100.495 235.533 100.238 236.044 99.8901 236.615C99.1955 237.757 98.1579 239.112 96.8684 240.483C94.3485 243.163 90.9048 245.865 87.2449 247.173Z" fill="black" stroke="black" stroke-width="5"/>
<path d="M86.7453 231.364C85.5712 233.243 84.7345 234.284 84.0751 234.777C83.7534 235.017 83.4979 235.109 83.2848 235.122C83.0741 235.134 82.8593 235.073 82.6116 234.924C82.3587 234.772 82.0896 234.538 81.7783 234.229C81.5777 234.03 81.3714 233.812 81.1465 233.574C81.0199 233.44 80.8874 233.3 80.7468 233.154C79.9766 232.352 79.0204 231.425 77.7239 230.614C76.4256 229.803 75.2518 229.401 74.3072 229.134C74.072 229.068 73.8507 229.01 73.6475 228.956L73.6389 228.954C73.4378 228.901 73.2565 228.854 73.0913 228.806C72.7488 228.708 72.5158 228.62 72.362 228.519C72.2259 228.43 72.17 228.344 72.1498 228.228C72.1252 228.086 72.1466 227.856 72.2838 227.475C72.5585 226.712 73.2217 225.536 74.3999 223.65C76.7082 219.956 80.1942 217.031 83.3209 215.163C84.8835 214.229 86.3445 213.567 87.5098 213.204C88.0932 213.022 88.5913 212.919 88.9847 212.891C89.3917 212.862 89.6288 212.917 89.7414 212.988C89.8532 213.057 90.0048 213.244 90.1529 213.62C90.2963 213.982 90.4169 214.471 90.5031 215.071C90.6752 216.269 90.7032 217.862 90.5319 219.665C90.1894 223.273 89.0549 227.668 86.7453 231.364Z" fill="black" stroke="black" stroke-width="5"/>
<path d="M83.4737 265.803C80.0708 273.101 75.7866 276.436 71.0309 277.352C66.2438 278.274 60.8883 276.766 55.312 274.166C49.7359 271.566 45.1404 268.433 42.7716 264.174C40.4184 259.943 40.2207 254.519 43.6237 247.221C47.0298 239.916 52.3717 234.327 58.2297 231.211C64.0877 228.094 70.4378 227.46 75.9033 230.008C81.3689 232.557 84.9663 237.83 86.3463 244.322C87.726 250.813 86.8797 258.499 83.4737 265.803Z" stroke="black" stroke-width="5"/>
<path d="M78.5044 258.183C78.3895 258.429 78.0333 258.611 77.4148 258.611C76.8167 258.61 76.0548 258.434 75.2782 258.072C74.5015 257.709 73.8767 257.239 73.4917 256.781C73.0937 256.308 73.0043 255.918 73.1192 255.672C73.2341 255.425 73.5903 255.243 74.2088 255.244C74.8069 255.244 75.5687 255.421 76.3454 255.783C77.1221 256.145 77.7469 256.615 78.1318 257.073C78.5298 257.546 78.6192 257.936 78.5044 258.183Z" stroke="black"/>
<path d="M57.4366 247.775C57.2926 248.005 56.9168 248.143 56.3031 248.067C55.7094 247.993 54.9748 247.725 54.2481 247.271C53.5213 246.817 52.9584 246.274 52.6321 245.773C52.2948 245.255 52.2536 244.857 52.3977 244.626C52.5417 244.396 52.9175 244.258 53.5312 244.334C54.1249 244.408 54.8595 244.676 55.5862 245.13C56.313 245.584 56.8759 246.127 57.2022 246.628C57.5395 247.146 57.5807 247.544 57.4366 247.775Z" stroke="black"/>
<path d="M67.6531 252.542C66.4519 252.844 65.3109 252.664 64.2305 252.001C63.1501 251.338 62.5251 250.47 62.3555 249.396" stroke="black" stroke-linecap="round" stroke-linejoin="round"/>
<path fill-rule="evenodd" clip-rule="evenodd" d="M61.4239 242.053C61.1177 241.295 60.5224 240.654 59.7105 240.309C58.8987 239.965 58.0241 239.982 57.2663 240.288C56.5085 240.594 55.8676 241.189 55.5229 242.001C55.1783 242.813 55.1953 243.688 55.5015 244.445C55.8076 245.203 56.4029 245.844 57.2147 246.189C58.0266 246.534 58.9013 246.516 59.6592 246.21C60.417 245.904 61.058 245.309 61.4027 244.497C61.7472 243.685 61.7301 242.81 61.4239 242.053ZM58.1835 241.436C58.7118 241.66 58.9586 242.271 58.7343 242.799C58.5099 243.328 57.8994 243.574 57.3709 243.35C56.8422 243.126 56.5956 242.515 56.8199 241.987C57.0443 241.458 57.6548 241.212 58.1835 241.436Z" fill="black"/>
<path fill-rule="evenodd" clip-rule="evenodd" d="M78.6193 250.965C78.3131 250.207 77.7178 249.566 76.9059 249.222C76.0941 248.877 75.2194 248.894 74.4617 249.2C73.7038 249.506 73.0628 250.102 72.7182 250.913C72.3736 251.725 72.3907 252.6 72.6968 253.358C73.003 254.116 73.5984 254.757 74.4101 255.101C75.222 255.446 76.0967 255.429 76.8545 255.123C77.6123 254.816 78.2533 254.221 78.598 253.409C78.9424 252.597 78.9255 251.723 78.6193 250.965ZM75.3787 250.349C75.9073 250.573 76.154 251.183 75.9296 251.712C75.7052 252.241 75.0948 252.487 74.5662 252.263C74.0376 252.038 73.7909 251.428 74.0154 250.899C74.2397 250.371 74.8502 250.124 75.3787 250.349Z" fill="black"/>
<path d="M47.5645 250.721L52.693 265.733" stroke="black" stroke-linecap="round"/>
<path d="M55.6156 255.95L46.1492 259.731" stroke="black" stroke-linecap="round"/>
<path d="M78.1246 264.972L63.3282 270.693" stroke="black" stroke-linecap="round"/>
<path d="M68.9438 262.166L72.1325 271.848" stroke="black" stroke-linecap="round"/>
<path d="M77.6232 236.875L67.9502 240.395" stroke="black" stroke-linecap="round"/>
<path d="M73.2008 242.844L69.6802 233.171" stroke="black" stroke-linecap="round"/>
<path d="M710.394 788.489C710.165 788.656 710.023 788.739 709.941 788.778C709.851 788.752 709.748 788.758 709.654 788.811C709.558 788.864 709.515 788.943 709.5 788.975C709.481 789.015 709.473 789.05 709.469 789.072C709.463 789.107 709.462 789.138 709.464 789.164C709.456 789.199 709.436 789.28 709.383 789.428C709.305 789.648 709.164 789.996 708.912 790.537C708.43 791.573 707.549 793.299 705.948 796.154C702.967 793.725 700.649 790.058 699.175 786.704C698.412 784.968 697.882 783.329 697.605 782.007C697.466 781.346 697.392 780.772 697.381 780.311C697.37 779.837 697.427 779.525 697.512 779.355C697.591 779.195 697.772 779.01 698.094 778.826C698.412 778.645 698.838 778.482 699.361 778.351C700.406 778.09 701.792 777.969 703.358 778.063C706.49 778.251 710.281 779.294 713.42 781.713C715.038 782.96 715.927 783.689 716.324 784.155C716.487 784.346 716.52 784.44 716.527 784.467C716.514 784.482 716.48 784.514 716.397 784.562C716.235 784.654 715.996 784.746 715.657 784.875L715.654 784.876C715.327 785.001 714.932 785.151 714.501 785.353C713.637 785.758 712.627 786.372 711.667 787.426C711.092 787.944 710.683 788.277 710.394 788.489ZM709.868 788.807C709.868 788.807 709.868 788.807 709.87 788.807C709.868 788.807 709.868 788.807 709.868 788.807ZM716.534 784.457C716.534 784.457 716.533 784.458 716.532 784.461C716.533 784.458 716.534 784.457 716.534 784.457Z" fill="black" stroke="black" stroke-width="5"/>
<path d="M737.089 788.527C737.068 788.512 737.045 788.495 737.019 788.477C736.902 788.391 736.762 788.283 736.594 788.151C736.571 788.133 736.547 788.115 736.523 788.096C736.324 787.942 736.093 787.763 735.831 787.57C734.789 786.805 733.25 785.812 731.168 785.124C729.008 783.483 726.763 783.196 725.183 782.994C724.788 782.943 724.435 782.898 724.135 782.838C723.748 782.762 723.479 782.669 723.3 782.544C723.14 782.434 723.041 782.291 723.007 782.056C722.97 781.8 723.009 781.422 723.184 780.86C723.357 780.304 723.655 779.598 724.101 778.698C725.861 775.15 728.844 772.579 731.612 771.064C732.996 770.307 734.313 769.822 735.381 769.608C735.915 769.501 736.376 769.464 736.745 769.491C737.121 769.517 737.367 769.606 737.509 769.715C737.66 769.831 737.845 770.084 738.039 770.511C738.228 770.927 738.407 771.47 738.565 772.12C738.882 773.419 739.106 775.11 739.164 776.992C739.277 780.668 738.753 785.014 737.089 788.527Z" fill="black" stroke="black" stroke-width="5"/>
<path d="M725.558 777.702C726.056 779.86 726.201 781.188 726.083 782.003C726.025 782.4 725.909 782.646 725.767 782.805C725.628 782.963 725.433 783.072 725.152 783.142C724.865 783.213 724.509 783.238 724.071 783.239C723.788 783.24 723.488 783.232 723.161 783.223C722.977 783.218 722.784 783.213 722.581 783.209C721.47 783.187 720.138 783.207 718.648 783.55C717.157 783.895 716.042 784.44 715.185 784.92C714.972 785.039 714.775 785.154 714.593 785.26L714.586 785.265C714.406 785.37 714.245 785.465 714.094 785.548C713.782 785.72 713.556 785.823 713.376 785.861C713.216 785.894 713.115 785.872 713.019 785.804C712.902 785.722 712.754 785.544 712.582 785.177C712.236 784.443 711.873 783.143 711.373 780.976C710.393 776.732 710.79 772.199 711.68 768.667C712.125 766.902 712.689 765.4 713.257 764.32C713.541 763.779 713.82 763.354 714.079 763.056C714.346 762.747 714.553 762.619 714.682 762.589C714.81 762.559 715.05 762.584 715.42 762.745C715.778 762.9 716.209 763.16 716.694 763.524C717.663 764.249 718.809 765.355 719.963 766.752C722.272 769.545 724.577 773.455 725.558 777.702Z" fill="black" stroke="black" stroke-width="5"/>
<path d="M747.597 804.367C750.351 811.933 749.679 817.321 746.964 821.331C744.231 825.369 739.379 828.089 733.597 830.194C727.815 832.298 722.351 833.332 717.664 831.996C713.008 830.668 709.033 826.972 706.279 819.405C703.522 811.832 703.347 804.102 705.286 797.756C707.224 791.41 711.266 786.472 716.933 784.409C722.6 782.346 728.872 783.531 734.438 787.146C740.004 790.761 744.84 796.794 747.597 804.367Z" stroke="black" stroke-width="5"/>
<path d="M738.694 802.493C738.787 802.748 738.663 803.129 738.226 803.566C737.802 803.988 737.139 804.402 736.334 804.695C735.528 804.988 734.754 805.098 734.158 805.046C733.542 804.993 733.203 804.78 733.11 804.525C733.017 804.269 733.14 803.889 733.578 803.452C734.001 803.029 734.665 802.615 735.47 802.322C736.275 802.029 737.05 801.92 737.645 801.971C738.262 802.025 738.601 802.237 738.694 802.493Z" stroke="black"/>
<path d="M716.437 810.03C716.498 810.295 716.33 810.658 715.842 811.038C715.37 811.406 714.661 811.736 713.826 811.929C712.991 812.121 712.21 812.136 711.624 812.012C711.019 811.884 710.709 811.632 710.648 811.367C710.586 811.102 710.755 810.739 711.243 810.359C711.714 809.991 712.423 809.661 713.258 809.468C714.093 809.275 714.875 809.261 715.46 809.385C716.065 809.513 716.376 809.765 716.437 810.03Z" stroke="black"/>
<path d="M727.032 806.177C726.396 807.24 725.462 807.919 724.23 808.215C722.997 808.51 721.941 808.338 721.062 807.699" stroke="black" stroke-linecap="round" stroke-linejoin="round"/>
<path fill-rule="evenodd" clip-rule="evenodd" d="M715.211 803.164C714.458 802.845 713.584 802.813 712.766 803.143C711.948 803.473 711.342 804.104 711.023 804.856C710.703 805.609 710.671 806.483 711.001 807.3C711.332 808.118 711.962 808.725 712.715 809.044C713.467 809.363 714.341 809.396 715.159 809.065C715.977 808.735 716.583 808.104 716.902 807.352C717.222 806.6 717.254 805.725 716.924 804.908C716.593 804.09 715.963 803.484 715.211 803.164ZM712.483 805.02C713.015 804.805 713.622 805.062 713.837 805.594C714.052 806.127 713.794 806.733 713.262 806.948C712.73 807.163 712.124 806.906 711.908 806.373C711.693 805.841 711.951 805.235 712.483 805.02Z" fill="black"/>
<path fill-rule="evenodd" clip-rule="evenodd" d="M733.671 797.308C732.919 796.988 732.045 796.956 731.227 797.286C730.409 797.617 729.803 798.247 729.484 798.999C729.164 799.752 729.132 800.626 729.462 801.444C729.793 802.261 730.423 802.868 731.176 803.187C731.928 803.507 732.802 803.539 733.62 803.209C734.438 802.878 735.044 802.248 735.363 801.495C735.683 800.743 735.715 799.869 735.385 799.051C735.054 798.233 734.424 797.627 733.671 797.308ZM730.944 799.163C731.477 798.948 732.083 799.205 732.298 799.737C732.513 800.27 732.256 800.876 731.723 801.091C731.191 801.306 730.585 801.049 730.37 800.517C730.155 799.984 730.412 799.378 730.944 799.163Z" fill="black"/>
<path d="M711.54 819.094L725.781 826.083" stroke="black" stroke-linecap="round"/>
<path d="M720.93 817.099L716.91 826.466" stroke="black" stroke-linecap="round"/>
<path d="M743.226 807.561L736.809 822.069" stroke="black" stroke-linecap="round"/>
<path d="M734.75 812.069L743.85 816.661" stroke="black" stroke-linecap="round"/>
<path d="M723.004 788.048L718.654 797.378" stroke="black" stroke-linecap="round"/>
<path d="M724.097 795.396L714.768 791.046" stroke="black" stroke-linecap="round"/>
<path d="M1269.98 206.548C1269.72 206.65 1269.56 206.693 1269.47 206.71C1269.39 206.661 1269.29 206.64 1269.19 206.667C1269.08 206.694 1269.02 206.759 1268.99 206.786C1268.97 206.82 1268.95 206.851 1268.94 206.872C1268.92 206.904 1268.92 206.934 1268.91 206.959C1268.89 206.992 1268.85 207.064 1268.76 207.194C1268.63 207.385 1268.41 207.685 1268.02 208.142C1267.29 209.018 1265.99 210.458 1263.71 212.801C1261.46 209.683 1260.16 205.542 1259.61 201.921C1259.32 200.046 1259.23 198.325 1259.31 196.977C1259.34 196.302 1259.42 195.729 1259.53 195.28C1259.64 194.82 1259.78 194.533 1259.9 194.391C1260.02 194.257 1260.25 194.125 1260.6 194.031C1260.96 193.938 1261.41 193.891 1261.95 193.9C1263.03 193.919 1264.4 194.161 1265.89 194.656C1268.86 195.648 1272.25 197.637 1274.66 200.786C1275.9 202.409 1276.57 203.344 1276.83 203.897C1276.94 204.123 1276.95 204.222 1276.95 204.251C1276.93 204.262 1276.89 204.284 1276.8 204.308C1276.62 204.355 1276.36 204.383 1276 204.419L1276 204.42C1275.65 204.455 1275.23 204.498 1274.76 204.582C1273.82 204.75 1272.69 205.082 1271.49 205.851C1270.8 206.202 1270.32 206.418 1269.98 206.548ZM1269.39 206.719C1269.39 206.719 1269.39 206.719 1269.39 206.719C1269.39 206.719 1269.39 206.719 1269.39 206.719ZM1276.96 204.243C1276.96 204.243 1276.96 204.244 1276.96 204.245C1276.96 204.244 1276.96 204.243 1276.96 204.243Z" fill="black" stroke="black" stroke-width="5"/>
<path d="M1295.76 213.493C1295.74 213.474 1295.72 213.452 1295.71 213.427C1295.61 213.314 1295.51 213.173 1295.38 213.003C1295.36 212.979 1295.34 212.956 1295.32 212.931C1295.17 212.731 1295 212.498 1294.79 212.244C1293.98 211.235 1292.75 209.877 1290.92 208.674C1289.26 206.53 1287.17 205.672 1285.69 205.068C1285.32 204.917 1284.99 204.782 1284.72 204.646C1284.36 204.472 1284.13 204.312 1283.99 204.146C1283.86 203.998 1283.8 203.834 1283.83 203.599C1283.86 203.342 1284 202.986 1284.31 202.489C1284.62 201.997 1285.09 201.392 1285.76 200.638C1288.38 197.667 1291.92 195.955 1294.99 195.209C1296.52 194.836 1297.92 194.707 1299.01 194.777C1299.55 194.812 1300 194.896 1300.35 195.017C1300.71 195.14 1300.93 195.289 1301.03 195.432C1301.15 195.583 1301.26 195.875 1301.34 196.337C1301.41 196.788 1301.45 197.359 1301.43 198.028C1301.4 199.364 1301.18 201.056 1300.75 202.889C1299.91 206.469 1298.28 210.531 1295.76 213.493Z" fill="black" stroke="black" stroke-width="5"/>
<path d="M1287.42 200.053C1287.35 202.267 1287.14 203.587 1286.82 204.343C1286.66 204.713 1286.48 204.919 1286.3 205.037C1286.13 205.153 1285.91 205.208 1285.62 205.202C1285.33 205.197 1284.98 205.129 1284.55 205.017C1284.28 204.945 1283.99 204.859 1283.68 204.766C1283.5 204.713 1283.32 204.658 1283.12 204.602C1282.06 204.293 1280.76 203.967 1279.24 203.914C1277.71 203.861 1276.49 204.099 1275.54 204.34C1275.3 204.4 1275.08 204.461 1274.88 204.516L1274.87 204.519C1274.67 204.574 1274.49 204.623 1274.32 204.665C1273.97 204.751 1273.73 204.791 1273.54 204.781C1273.38 204.771 1273.29 204.724 1273.21 204.634C1273.12 204.524 1273.03 204.314 1272.95 203.915C1272.81 203.117 1272.8 201.767 1272.87 199.545C1273.03 195.191 1274.58 190.916 1276.36 187.734C1277.24 186.144 1278.18 184.84 1279 183.943C1279.42 183.494 1279.8 183.156 1280.13 182.935C1280.46 182.706 1280.7 182.635 1280.83 182.64C1280.96 182.645 1281.19 182.731 1281.5 182.982C1281.81 183.224 1282.16 183.587 1282.53 184.064C1283.28 185.015 1284.1 186.381 1284.85 188.028C1286.36 191.323 1287.57 195.697 1287.42 200.053Z" fill="black" stroke="black" stroke-width="5"/>
<path d="M1301.81 231.514C1302.51 239.535 1300.47 244.565 1296.81 247.736C1293.12 250.929 1287.73 252.301 1281.6 252.837C1275.47 253.373 1269.93 252.958 1265.75 250.454C1261.59 247.966 1258.71 243.367 1258.01 235.346C1257.3 227.317 1259.14 219.806 1262.65 214.178C1266.17 208.55 1271.35 204.825 1277.36 204.299C1283.36 203.774 1289.12 206.542 1293.56 211.474C1298 216.406 1301.11 223.485 1301.81 231.514Z" stroke="black" stroke-width="5"/>
<path d="M1293.7 227.399C1293.72 227.67 1293.5 228.006 1292.97 228.314C1292.45 228.613 1291.7 228.841 1290.85 228.916C1289.99 228.99 1289.22 228.896 1288.65 228.692C1288.07 228.481 1287.8 228.188 1287.78 227.917C1287.75 227.646 1287.97 227.31 1288.51 227.001C1289.02 226.703 1289.77 226.475 1290.63 226.4C1291.48 226.325 1292.26 226.42 1292.82 226.624C1293.4 226.835 1293.67 227.128 1293.7 227.399Z" stroke="black"/>
<path d="M1270.25 228.919C1270.24 229.191 1269.98 229.498 1269.41 229.739C1268.86 229.972 1268.09 230.107 1267.23 230.077C1266.38 230.048 1265.62 229.859 1265.08 229.588C1264.53 229.308 1264.3 228.984 1264.31 228.712C1264.32 228.44 1264.57 228.133 1265.14 227.892C1265.69 227.659 1266.46 227.524 1267.32 227.554C1268.18 227.584 1268.94 227.772 1269.47 228.043C1270.02 228.324 1270.26 228.648 1270.25 228.919Z" stroke="black"/>
<path d="M1281.48 227.94C1280.59 228.802 1279.51 229.216 1278.24 229.182C1276.98 229.149 1276 228.709 1275.32 227.864" stroke="black" stroke-linecap="round" stroke-linejoin="round"/>
<path fill-rule="evenodd" clip-rule="evenodd" d="M1270.84 221.97C1270.19 221.467 1269.36 221.209 1268.48 221.317C1267.61 221.424 1266.86 221.876 1266.36 222.52C1265.85 223.164 1265.59 224 1265.7 224.876C1265.81 225.751 1266.26 226.5 1266.91 227.003C1267.55 227.506 1268.39 227.764 1269.26 227.656C1270.14 227.549 1270.89 227.097 1271.39 226.453C1271.89 225.809 1272.15 224.973 1272.04 224.097C1271.93 223.222 1271.48 222.473 1270.84 221.97ZM1267.72 223.056C1268.29 222.986 1268.81 223.391 1268.88 223.961C1268.95 224.531 1268.55 225.05 1267.98 225.12C1267.41 225.19 1266.89 224.785 1266.82 224.215C1266.75 223.645 1267.15 223.126 1267.72 223.056Z" fill="black"/>
<path fill-rule="evenodd" clip-rule="evenodd" d="M1290.19 221.091C1289.54 220.587 1288.71 220.33 1287.83 220.437C1286.96 220.545 1286.21 220.997 1285.7 221.641C1285.2 222.285 1284.94 223.121 1285.05 223.997C1285.16 224.872 1285.61 225.621 1286.25 226.124C1286.9 226.627 1287.73 226.885 1288.61 226.777C1289.48 226.67 1290.23 226.218 1290.74 225.574C1291.24 224.93 1291.5 224.094 1291.39 223.218C1291.28 222.343 1290.83 221.594 1290.19 221.091ZM1287.07 222.177C1287.64 222.107 1288.16 222.512 1288.23 223.082C1288.3 223.652 1287.89 224.171 1287.32 224.241C1286.75 224.311 1286.24 223.906 1286.17 223.336C1286.1 222.766 1286.5 222.247 1287.07 222.177Z" fill="black"/>
<path d="M1263.17 236.407L1275.12 246.843" stroke="black" stroke-linecap="round"/>
<path d="M1272.76 236.91L1266.45 244.918" stroke="black" stroke-linecap="round"/>
<path d="M1296.76 233.468L1286.81 245.821" stroke="black" stroke-linecap="round"/>
<path d="M1287.41 235.628L1295.01 242.419" stroke="black" stroke-linecap="round"/>
<path d="M1282.28 209.386L1275.66 217.272" stroke="black" stroke-linecap="round"/>
<path d="M1281.43 216.767L1273.55 210.15" stroke="black" stroke-linecap="round"/>
<path d="M1505.67 779.093C1505.31 780.103 1504.98 781.165 1504.68 782.27C1503.9 782.081 1503.13 781.915 1502.38 781.777C1494.59 780.343 1489.12 781.816 1486.98 785.922C1484.85 790.028 1486.45 795.986 1491.5 802.699C1492.03 803.407 1492.59 804.116 1493.19 804.825C1492.63 805.504 1492.11 806.186 1491.62 806.87C1487.12 813.162 1486.01 819.001 1488.5 823.311C1490.99 827.621 1496.6 829.581 1504.3 828.831C1505.13 828.749 1505.99 828.636 1506.85 828.494C1507.17 829.364 1507.5 830.208 1507.85 831.023C1511.14 838.748 1515.5 843.115 1520.12 843.319C1524.75 843.523 1528.75 839.525 1531.41 832.061C1531.66 831.339 1531.91 830.59 1532.13 829.819C1533.24 830.111 1534.32 830.356 1535.38 830.55C1543.17 831.983 1548.64 830.511 1550.77 826.405C1552.49 823.105 1551.79 818.612 1548.83 813.49C1548.11 812.238 1547.25 810.947 1546.26 809.627C1545.62 808.778 1544.93 807.926 1544.2 807.075C1544.85 806.304 1545.45 805.529 1546 804.752C1550.5 798.46 1551.61 792.621 1549.12 788.311C1546.63 784.001 1541.02 782.041 1533.32 782.791C1532.37 782.884 1531.4 783.017 1530.41 783.188C1530.04 782.131 1529.65 781.11 1529.23 780.132C1528.58 778.613 1527.89 777.224 1527.17 775.971C1524.21 770.851 1520.67 768 1516.96 767.836C1512.33 767.632 1508.32 771.63 1505.67 779.093ZM1492.45 796.767C1490.38 793.181 1489.75 790.17 1490.72 788.294C1492 785.839 1496.11 785.052 1502 786.136C1502.56 786.239 1503.13 786.359 1503.71 786.493C1503.15 789.438 1502.77 792.609 1502.58 795.929C1500.15 797.781 1497.92 799.732 1495.96 801.735C1494.53 800 1493.36 798.329 1492.45 796.767ZM1524.33 795.682C1526.27 796.913 1528.1 798.176 1529.82 799.454C1530.07 801.583 1530.25 803.801 1530.34 806.097C1530.45 808.631 1530.45 811.116 1530.34 813.519C1528.73 814.648 1527 815.751 1525.16 816.813C1523.1 818.002 1521.07 819.044 1519.08 819.947C1517.2 818.943 1515.31 817.84 1513.43 816.645C1511.26 815.272 1509.24 813.859 1507.35 812.429C1507.05 810.08 1506.84 807.618 1506.74 805.057C1506.64 802.83 1506.63 800.64 1506.7 798.511C1508.48 797.24 1510.4 795.999 1512.46 794.809C1514.3 793.748 1516.12 792.804 1517.9 791.97C1520.03 793.082 1522.19 794.323 1524.33 795.682ZM1522.88 789.893C1524.55 789.282 1526.16 788.774 1527.72 788.366C1528.17 790.042 1528.59 791.825 1528.94 793.704C1528.07 793.106 1527.18 792.519 1526.27 791.944C1525.14 791.229 1524.01 790.545 1522.88 789.893ZM1534.36 803.091C1535.81 804.34 1537.15 805.588 1538.37 806.822C1537.24 807.963 1535.99 809.109 1534.63 810.245C1534.63 808.938 1534.61 807.617 1534.55 806.283C1534.51 805.212 1534.44 804.148 1534.36 803.091ZM1529.88 819.256C1529.67 821.036 1529.39 822.748 1529.05 824.376C1527.48 823.83 1525.88 823.194 1524.24 822.472C1525.31 821.924 1526.37 821.345 1527.43 820.736C1528.26 820.255 1529.08 819.761 1529.88 819.256ZM1514.07 821.969C1512.51 822.522 1510.98 822.983 1509.52 823.356C1509.07 821.758 1508.66 820.058 1508.3 818.269C1509.34 818.989 1510.4 819.695 1511.48 820.382C1512.34 820.93 1513.21 821.458 1514.07 821.969ZM1502.76 808.688C1501.4 807.481 1500.13 806.275 1498.97 805.085C1500.03 804.002 1501.19 802.915 1502.45 801.834C1502.46 802.838 1502.48 803.851 1502.53 804.872C1502.58 806.154 1502.66 807.427 1502.76 808.688ZM1507.1 792.775C1507.29 791.002 1507.54 789.292 1507.85 787.661C1509.43 788.182 1511.05 788.798 1512.7 789.502C1511.86 789.945 1511.03 790.406 1510.19 790.886C1509.14 791.496 1508.11 792.127 1507.1 792.775ZM1492.05 821.26C1490.41 818.423 1491.94 813.521 1496.23 808.175C1498.39 810.389 1500.82 812.575 1503.46 814.676C1503.96 818.014 1504.63 821.21 1505.47 824.187C1498.7 825.225 1493.69 824.098 1492.05 821.26ZM1519.94 838.896C1517.82 838.803 1515.54 836.745 1513.47 833.158C1512.56 831.596 1511.7 829.742 1510.92 827.636C1513.63 826.941 1516.43 825.99 1519.26 824.804C1522.23 826.3 1525.16 827.557 1527.99 828.546C1527.82 829.115 1527.64 829.669 1527.44 830.207C1525.44 835.851 1522.7 839.018 1519.94 838.896ZM1545.3 815.56C1547.37 819.146 1548.01 822.156 1547.03 824.033C1545.76 826.488 1541.65 827.275 1535.75 826.191C1534.91 826.037 1534.05 825.847 1533.18 825.624C1533.78 822.68 1534.21 819.493 1534.44 816.144C1537.01 814.236 1539.35 812.216 1541.41 810.137C1543.02 812.035 1544.32 813.862 1545.3 815.56ZM1545.57 790.362C1547.24 793.254 1545.62 798.291 1541.14 803.758C1538.92 801.52 1536.43 799.315 1533.73 797.2C1533.25 793.8 1532.58 790.539 1531.75 787.498C1538.73 786.355 1543.9 787.469 1545.57 790.362ZM1517.14 772.259C1520.25 772.396 1523.74 776.799 1526.37 784.073C1523.54 784.818 1520.61 785.841 1517.67 787.113C1514.66 785.636 1511.69 784.41 1508.83 783.465C1509.08 782.592 1509.35 781.752 1509.63 780.948C1511.64 775.304 1514.38 772.137 1517.14 772.259Z" fill="black"/>
<path d="M1524.3 802.642C1522.37 799.295 1518.34 798 1515.31 799.75C1512.28 801.5 1511.39 805.632 1513.32 808.979C1515.26 812.327 1519.28 813.622 1522.31 811.872C1525.34 810.122 1526.23 805.99 1524.3 802.642Z" fill="black"/>
<path d="M394.67 529.093C394.311 530.103 393.981 531.165 393.68 532.27C392.899 532.081 392.129 531.915 391.376 531.777C383.585 530.343 378.119 531.816 375.983 535.922C373.848 540.028 375.45 545.986 380.495 552.699C381.027 553.407 381.593 554.116 382.188 554.825C381.632 555.504 381.107 556.186 380.618 556.87C376.119 563.162 375.012 569.001 377.5 573.311C379.988 577.621 385.599 579.581 393.298 578.831C394.134 578.749 394.987 578.636 395.853 578.494C396.17 579.364 396.501 580.208 396.848 581.023C400.139 588.748 404.498 593.115 409.122 593.319C413.745 593.523 417.754 589.525 420.408 582.061C420.664 581.339 420.905 580.59 421.133 579.819C422.24 580.111 423.324 580.356 424.378 580.55C432.169 581.983 437.635 580.511 439.771 576.405C441.486 573.105 440.79 568.612 437.833 563.49C437.11 562.238 436.251 560.947 435.259 559.627C434.621 558.778 433.934 557.926 433.204 557.075C433.846 556.304 434.448 555.529 435.003 554.752C439.503 548.46 440.61 542.621 438.122 538.311C435.633 534.001 430.023 532.041 422.324 532.791C421.374 532.884 420.402 533.017 419.413 533.188C419.041 532.131 418.646 531.11 418.23 530.132C417.583 528.613 416.895 527.224 416.171 525.971C413.215 520.851 409.671 518 405.956 517.836C401.332 517.632 397.324 521.63 394.67 529.093ZM381.455 546.767C379.384 543.181 378.745 540.17 379.721 538.294C380.998 535.839 385.109 535.052 391 536.136C391.561 536.239 392.133 536.359 392.712 536.493C392.153 539.438 391.774 542.609 391.585 545.929C389.146 547.781 386.921 549.732 384.962 551.735C383.532 550 382.356 548.329 381.455 546.767ZM413.328 545.682C415.268 546.913 417.1 548.176 418.818 549.454C419.066 551.583 419.245 553.801 419.342 556.097C419.448 558.631 419.446 561.116 419.342 563.519C417.728 564.648 416.002 565.751 414.163 566.813C412.103 568.002 410.068 569.044 408.079 569.947C406.2 568.943 404.309 567.84 402.426 566.645C400.263 565.272 398.235 563.859 396.348 562.429C396.054 560.08 395.844 557.618 395.736 555.057C395.643 552.83 395.633 550.64 395.702 548.511C397.479 547.24 399.399 545.999 401.459 544.809C403.298 543.748 405.117 542.804 406.901 541.97C409.034 543.082 411.187 544.323 413.328 545.682ZM411.882 539.893C413.546 539.282 415.162 538.774 416.716 538.366C417.173 540.042 417.585 541.825 417.942 543.704C417.067 543.106 416.177 542.519 415.272 541.944C414.145 541.229 413.014 540.545 411.882 539.893ZM423.362 553.091C424.81 554.34 426.148 555.588 427.371 556.822C426.24 557.963 424.992 559.109 423.632 560.245C423.633 558.938 423.606 557.617 423.55 556.283C423.505 555.212 423.442 554.148 423.362 553.091ZM418.88 569.256C418.665 571.036 418.388 572.748 418.05 574.376C416.482 573.83 414.875 573.194 413.244 572.472C414.309 571.924 415.372 571.345 416.428 570.736C417.26 570.255 418.077 569.761 418.88 569.256ZM403.075 571.969C401.507 572.522 399.985 572.983 398.52 573.356C398.068 571.758 397.657 570.058 397.296 568.269C398.337 568.989 399.399 569.695 400.483 570.382C401.345 570.93 402.209 571.458 403.075 571.969ZM391.765 558.688C390.395 557.481 389.128 556.275 387.971 555.085C389.026 554.002 390.187 552.915 391.45 551.834C391.459 552.838 391.485 553.851 391.527 554.872C391.581 556.154 391.661 557.427 391.765 558.688ZM396.098 542.775C396.289 541.002 396.541 539.292 396.853 537.661C398.431 538.182 400.052 538.798 401.702 539.502C400.863 539.945 400.026 540.406 399.194 540.886C398.138 541.496 397.106 542.127 396.098 542.775ZM381.052 571.26C379.414 568.423 380.942 563.521 385.227 558.175C387.386 560.389 389.815 562.575 392.456 564.676C392.955 568.014 393.633 571.21 394.471 574.187C387.699 575.225 382.69 574.098 381.052 571.26ZM408.936 588.896C406.823 588.803 404.536 586.745 402.465 583.158C401.564 581.596 400.704 579.742 399.916 577.636C402.631 576.941 405.433 575.99 408.256 574.804C411.226 576.3 414.162 577.557 416.991 578.546C416.818 579.115 416.636 579.669 416.445 580.207C414.438 585.851 411.701 589.018 408.936 588.896ZM434.3 565.56C436.37 569.146 437.009 572.156 436.033 574.033C434.756 576.488 430.645 577.275 424.754 576.191C423.915 576.037 423.054 575.847 422.175 575.624C422.784 572.68 423.207 569.493 423.435 566.144C426.007 564.236 428.354 562.216 430.414 560.137C432.017 562.035 433.32 563.862 434.3 565.56ZM434.57 540.362C436.24 543.254 434.619 548.291 430.142 553.758C427.923 551.52 425.43 549.315 422.726 547.2C422.246 543.8 421.583 540.539 420.754 537.498C427.727 536.355 432.9 537.469 434.57 540.362ZM406.142 522.259C409.255 522.396 412.745 526.799 415.366 534.073C412.535 534.818 409.612 535.841 406.674 537.113C403.66 535.636 400.688 534.41 397.835 533.465C398.081 532.592 398.347 531.752 398.633 530.948C400.64 525.304 403.377 522.137 406.142 522.259Z" fill="black"/>
<path d="M413.299 552.642C411.366 549.295 407.343 548 404.312 549.75C401.281 551.5 400.39 555.632 402.323 558.979C404.256 562.327 408.279 563.622 411.31 561.872C414.341 560.122 415.232 555.99 413.299 552.642Z" fill="black"/>
<path d="M712.159 355.722C711.126 356.007 710.067 356.346 708.99 356.733C708.696 355.984 708.391 355.259 708.072 354.562C704.778 347.359 700.436 343.725 695.848 344.331C691.259 344.937 687.298 349.667 684.692 357.65C684.418 358.492 684.161 359.362 683.922 360.256C683.047 360.19 682.187 360.152 681.347 360.143C673.612 360.067 668.193 362.509 666.09 367.019C663.987 371.53 665.599 377.25 670.63 383.126C671.176 383.764 671.758 384.398 672.371 385.026C671.84 385.784 671.338 386.54 670.87 387.291C666.43 394.418 665.353 400.493 667.838 404.398C670.323 408.303 675.897 409.293 683.533 407.186C684.272 406.982 685.024 406.75 685.786 406.494C686.182 407.568 686.603 408.597 687.049 409.572C690.343 416.775 694.685 420.409 699.273 419.803C702.96 419.316 706.241 416.168 708.74 410.808C709.352 409.497 709.916 408.053 710.428 406.484C710.758 405.474 711.062 404.422 711.341 403.337C712.341 403.42 713.32 403.469 714.275 403.478C722.01 403.555 727.428 401.113 729.532 396.602C731.635 392.092 730.023 386.372 724.992 380.496C724.371 379.77 723.704 379.051 722.998 378.339C723.65 377.427 724.26 376.519 724.822 375.616C725.695 374.215 726.438 372.855 727.049 371.544C729.548 366.185 729.851 361.647 727.854 358.51C725.369 354.605 719.795 353.615 712.159 355.722ZM690.102 355.033C691.852 351.281 693.952 349.03 696.048 348.753C698.792 348.391 701.794 351.308 704.286 356.755C704.523 357.274 704.752 357.811 704.975 358.362C702.242 359.594 699.427 361.101 696.599 362.851C693.683 361.915 690.809 361.212 688.044 360.756C688.645 358.59 689.34 356.668 690.102 355.033ZM709.273 380.52C709.377 382.816 709.393 385.041 709.332 387.181C707.73 388.606 706.016 390.024 704.19 391.421C702.175 392.961 700.139 394.385 698.111 395.678C696.261 395.003 694.367 394.222 692.442 393.324C690.286 392.319 688.266 391.25 686.385 390.139C686.13 388.023 685.949 385.841 685.848 383.614C685.732 381.054 685.726 378.583 685.815 376.217C687.57 374.628 689.467 373.044 691.502 371.487C693.274 370.133 695.061 368.869 696.846 367.705C698.906 368.432 701.024 369.292 703.18 370.297C705.104 371.195 706.921 372.143 708.627 373.127C708.94 375.512 709.158 377.987 709.273 380.52ZM713.186 376.015C714.64 377.028 715.983 378.061 717.209 379.099C716.098 380.435 714.874 381.795 713.54 383.165C713.527 382.105 713.498 381.039 713.449 379.969C713.389 378.635 713.3 377.317 713.186 376.015ZM708.958 392.989C708.767 394.892 708.511 396.704 708.202 398.414C706.619 398.142 704.964 397.777 703.254 397.314C704.324 396.565 705.392 395.785 706.452 394.975C707.303 394.324 708.139 393.661 708.958 392.989ZM693.146 398.59C691.565 399.435 690.003 400.19 688.476 400.846C688.024 399.249 687.624 397.568 687.279 395.818C688.339 396.376 689.423 396.914 690.528 397.43C691.399 397.836 692.272 398.222 693.146 398.59ZM681.859 387.199C680.506 386.232 679.255 385.25 678.11 384.263C679.159 382.977 680.316 381.665 681.575 380.343C681.582 381.609 681.613 382.884 681.671 384.166C681.718 385.186 681.781 386.197 681.859 387.199ZM686.25 370.317C686.454 368.502 686.715 366.773 687.026 365.142C688.518 365.386 690.075 365.713 691.685 366.127C690.867 366.712 690.052 367.313 689.241 367.933C688.221 368.713 687.224 369.508 686.25 370.317ZM701.771 364.739C703.333 363.878 704.878 363.105 706.393 362.424C706.872 364.016 707.297 365.697 707.666 367.452C706.822 367.019 705.965 366.598 705.094 366.192C703.989 365.676 702.88 365.193 701.771 364.739ZM669.807 368.753C671.192 365.783 676.083 364.224 682.921 364.667C682.345 367.706 681.948 370.949 681.742 374.318C679.294 376.641 677.065 379.03 675.107 381.424C670.372 376.471 668.423 371.722 669.807 368.753ZM671.355 401.709C670.219 399.925 670.593 396.872 672.343 393.118C673.105 391.483 674.131 389.715 675.404 387.862C677.531 389.687 679.917 391.437 682.508 393.069C682.986 396.36 683.64 399.486 684.453 402.371C683.888 402.555 683.329 402.725 682.779 402.876C677.005 404.469 672.841 404.044 671.355 401.709ZM705.018 409.101C703.268 412.853 701.169 415.104 699.072 415.381C696.329 415.743 693.326 412.827 690.835 407.38C690.48 406.603 690.141 405.789 689.82 404.942C692.58 403.752 695.434 402.27 698.308 400.536C701.346 401.548 704.347 402.312 707.232 402.808C706.597 405.209 705.847 407.324 705.018 409.101ZM725.814 394.869C724.403 397.896 719.347 399.457 712.301 398.926C712.862 395.824 713.238 392.518 713.42 389.089C715.929 386.747 718.221 384.333 720.236 381.909C725.172 386.965 727.226 391.842 725.814 394.869ZM724.338 361.199C726.011 363.828 724.406 369.212 719.951 375.531C717.717 373.64 715.203 371.832 712.475 370.155C711.956 366.839 711.256 363.701 710.394 360.821C711.25 360.523 712.091 360.258 712.914 360.032C718.688 358.438 722.852 358.864 724.338 361.199Z" fill="black"/>
<path d="M703.554 384.489C705.188 380.986 703.94 376.947 700.769 375.468C697.597 373.989 693.701 375.629 692.068 379.133C690.434 382.636 691.681 386.675 694.853 388.154C698.025 389.633 701.92 387.992 703.554 384.489Z" fill="black"/>
<path d="M1211.79 36.1025C1210.97 36.7977 1210.16 37.552 1209.34 38.3582C1208.76 37.8041 1208.18 37.276 1207.59 36.7791C1201.56 31.6428 1196.09 30.1844 1192.19 32.6729C1188.29 35.1612 1186.7 41.1218 1187.71 49.4583C1187.82 50.3371 1187.95 51.2342 1188.11 52.1457C1187.29 52.4558 1186.5 52.7842 1185.73 53.1318C1178.69 56.3315 1174.81 60.8344 1174.81 65.8111C1174.81 70.7878 1178.69 75.2907 1185.73 78.4902C1186.5 78.8378 1187.29 79.1662 1188.11 79.4764C1187.95 80.3878 1187.82 81.285 1187.71 82.1636C1186.7 90.4993 1188.29 96.4607 1192.19 98.9491C1196.09 101.438 1201.56 99.9792 1207.59 94.8429C1208.18 94.3461 1208.76 93.818 1209.34 93.2638C1210.16 94.0701 1210.97 94.8243 1211.79 95.5195C1217.82 100.656 1223.29 102.114 1227.19 99.6258C1230.33 97.6263 1231.97 93.3863 1231.97 87.4728C1231.97 86.0264 1231.87 84.4787 1231.67 82.8404C1231.55 81.7852 1231.38 80.7038 1231.17 79.6021C1232.11 79.2556 1233.02 78.8852 1233.89 78.4902C1240.93 75.2907 1244.81 70.7878 1244.81 65.8111C1244.81 60.8344 1240.93 56.3315 1233.89 53.132C1233.02 52.7369 1232.11 52.3665 1231.17 52.02C1231.38 50.9183 1231.55 49.8369 1231.67 48.7817C1231.87 47.143 1231.97 45.5961 1231.97 44.1493C1231.97 38.2364 1230.33 33.9955 1227.19 31.9964C1223.29 29.5078 1217.82 30.9662 1211.79 36.1025ZM1191.51 44.8004C1191.51 40.6598 1192.46 37.7331 1194.24 36.5959C1196.58 35.108 1200.53 36.4823 1205.09 40.3662C1205.52 40.7363 1205.96 41.126 1206.39 41.5319C1204.44 43.8028 1202.52 46.3589 1200.7 49.14C1197.66 49.5242 1194.76 50.1018 1192.06 50.857C1191.69 48.6398 1191.51 46.6039 1191.51 44.8004ZM1219.65 59.7976C1220.72 61.8338 1221.67 63.8434 1222.52 65.8097C1221.67 67.7772 1220.72 69.7872 1219.65 71.8245C1218.48 74.0721 1217.24 76.2231 1215.94 78.2524C1213.98 78.4227 1211.93 78.5148 1209.81 78.5148C1207.43 78.5148 1205.15 78.3996 1202.97 78.1876C1201.85 76.378 1200.76 74.4771 1199.73 72.5013C1198.54 70.2303 1197.49 67.9929 1196.57 65.8112C1197.49 63.6293 1198.54 61.392 1199.73 59.121C1200.76 57.145 1201.85 55.2443 1202.97 53.4347C1205.15 53.2227 1207.43 53.1075 1209.81 53.1075C1211.93 53.1075 1213.98 53.1996 1215.94 53.3699C1217.24 55.399 1218.48 57.55 1219.65 59.7976ZM1221.3 54.0609C1223.04 54.3644 1224.7 54.7325 1226.25 55.1554C1225.8 56.8355 1225.27 58.586 1224.64 60.3915C1224.18 59.4363 1223.7 58.4824 1223.21 57.5327C1222.59 56.3497 1221.95 55.192 1221.3 54.0609ZM1224.64 71.2309C1225.27 73.0368 1225.8 74.7868 1226.24 76.4671C1224.7 76.8898 1223.04 77.2579 1221.3 77.5614C1221.95 76.4302 1222.59 75.2726 1223.21 74.0897C1223.7 73.1399 1224.18 72.1862 1224.64 71.2309ZM1212.67 82.9894C1211.6 84.4239 1210.5 85.7679 1209.4 87.008C1208.31 85.7514 1207.24 84.3972 1206.19 82.9566C1207.38 83.0145 1208.59 83.0447 1209.81 83.0447C1210.77 83.0447 1211.73 83.0255 1212.67 82.9894ZM1197.63 77.4361C1196 77.1315 1194.45 76.7697 1192.99 76.3597C1193.4 74.7503 1193.89 73.073 1194.48 71.3424C1195.02 72.4866 1195.58 73.6293 1196.18 74.7661C1196.65 75.6712 1197.14 76.5611 1197.63 77.4361ZM1194.48 60.2799C1193.89 58.5493 1193.4 56.872 1192.99 55.2624C1194.45 54.8525 1196 54.4906 1197.63 54.1861C1197.14 55.0611 1196.65 55.951 1196.18 56.8559C1195.58 57.993 1195.02 59.1355 1194.48 60.2799ZM1206.19 48.6654C1207.24 47.225 1208.31 45.8708 1209.4 44.614C1210.5 45.8542 1211.6 47.1982 1212.67 48.6327C1211.73 48.5966 1210.77 48.5775 1209.81 48.5775C1208.59 48.5775 1207.38 48.6076 1206.19 48.6654ZM1178.91 65.8111C1178.91 62.5346 1182.69 59.0541 1189.07 56.5663C1189.83 59.5637 1190.84 62.671 1192.08 65.8111C1190.84 68.9512 1189.83 72.0584 1189.07 75.0559C1182.69 72.568 1178.91 69.0876 1178.91 65.8111ZM1194.24 95.0262C1192.46 93.8888 1191.51 90.9636 1191.51 86.8217C1191.51 85.0184 1191.69 82.9823 1192.06 80.765C1194.76 81.5204 1197.66 82.0978 1200.7 82.482C1202.52 85.263 1204.44 87.8193 1206.39 90.0901C1205.96 90.496 1205.52 90.8857 1205.09 91.2558C1200.53 95.1399 1196.58 96.5141 1194.24 95.0262ZM1227.88 87.4983C1227.88 91.639 1226.92 94.5656 1225.14 95.7028C1222.81 97.1907 1218.85 95.8165 1214.29 91.9326C1213.64 91.3792 1212.99 90.7844 1212.34 90.1519C1214.34 87.9067 1216.3 85.3583 1218.18 82.5721C1221.36 82.2053 1224.4 81.6294 1227.22 80.8594C1227.66 83.3039 1227.88 85.538 1227.88 87.4983ZM1240.71 65.8111C1240.71 69.1511 1236.79 72.7027 1230.18 75.199C1229.37 72.151 1228.32 68.9948 1227.03 65.8111C1228.32 62.6273 1229.37 59.4711 1230.18 56.4231C1236.79 58.9194 1240.71 62.471 1240.71 65.8111ZM1225.14 35.9193C1227.77 37.5948 1228.59 43.1533 1227.22 50.7628C1224.4 49.9927 1221.36 49.417 1218.18 49.0502C1216.3 46.2639 1214.34 43.7155 1212.34 41.4704C1212.99 40.8379 1213.64 40.2431 1214.29 39.6897C1218.85 35.8055 1222.81 34.4312 1225.14 35.9193Z" fill="black"/>
<path d="M1216.15 65.8112C1216.15 61.9459 1213.31 58.8125 1209.81 58.8125C1206.31 58.8125 1203.47 61.9459 1203.47 65.8112C1203.47 69.6765 1206.31 72.8099 1209.81 72.8099C1213.31 72.8099 1216.15 69.6765 1216.15 65.8112Z" fill="black"/>
<path d="M1063.98 547.291C1063.16 547.987 1062.35 548.741 1061.53 549.547C1060.95 548.993 1060.37 548.465 1059.78 547.968C1053.75 542.832 1048.28 541.373 1044.38 543.862C1040.48 546.35 1038.89 552.311 1039.9 560.647C1040.01 561.526 1040.14 562.423 1040.3 563.335C1039.48 563.645 1038.69 563.973 1037.92 564.321C1030.88 567.52 1027 572.023 1027 577C1027 581.977 1030.88 586.48 1037.92 589.679C1038.69 590.027 1039.48 590.355 1040.3 590.665C1040.14 591.577 1040.01 592.474 1039.9 593.353C1038.89 601.688 1040.48 607.65 1044.38 610.138C1048.28 612.626 1053.75 611.168 1059.78 606.032C1060.37 605.535 1060.95 605.007 1061.53 604.453C1062.35 605.259 1063.16 606.013 1063.98 606.708C1070.01 611.845 1075.48 613.303 1079.38 610.815C1082.52 608.815 1084.16 604.575 1084.16 598.662C1084.16 597.215 1084.06 595.668 1083.86 594.029C1083.73 592.974 1083.57 591.893 1083.36 590.791C1084.3 590.445 1085.21 590.074 1086.08 589.679C1093.12 586.48 1097 581.977 1097 577C1097 572.023 1093.12 567.52 1086.08 564.321C1085.21 563.926 1084.3 563.555 1083.36 563.209C1083.57 562.107 1083.73 561.026 1083.86 559.971C1084.06 558.332 1084.16 556.785 1084.16 555.338C1084.16 549.425 1082.52 545.184 1079.38 543.185C1075.48 540.697 1070.01 542.155 1063.98 547.291ZM1043.7 555.989C1043.7 551.849 1044.65 548.922 1046.43 547.785C1048.77 546.297 1052.72 547.671 1057.28 551.555C1057.71 551.925 1058.15 552.315 1058.58 552.721C1056.63 554.992 1054.71 557.548 1052.89 560.329C1049.85 560.713 1046.95 561.291 1044.25 562.046C1043.88 559.829 1043.7 557.793 1043.7 555.989ZM1071.84 570.987C1072.91 573.023 1073.86 575.032 1074.71 576.999C1073.86 578.966 1072.91 580.976 1071.84 583.014C1070.67 585.261 1069.42 587.412 1068.13 589.441C1066.17 589.612 1064.12 589.704 1062 589.704C1059.62 589.704 1057.34 589.589 1055.16 589.377C1054.04 587.567 1052.95 585.666 1051.92 583.69C1050.73 581.419 1049.68 579.182 1048.76 577C1049.68 574.818 1050.73 572.581 1051.92 570.31C1052.95 568.334 1054.04 566.433 1055.16 564.624C1057.34 564.412 1059.62 564.296 1062 564.296C1064.12 564.296 1066.17 564.389 1068.13 564.559C1069.42 566.588 1070.67 568.739 1071.84 570.987ZM1073.48 565.25C1075.23 565.553 1076.88 565.922 1078.43 566.344C1077.99 568.024 1077.46 569.775 1076.83 571.58C1076.37 570.625 1075.89 569.671 1075.39 568.722C1074.78 567.539 1074.14 566.381 1073.48 565.25ZM1076.83 582.42C1077.46 584.226 1077.99 585.976 1078.43 587.656C1076.88 588.079 1075.23 588.447 1073.48 588.75C1074.14 587.619 1074.78 586.462 1075.39 585.279C1075.89 584.329 1076.37 583.375 1076.83 582.42ZM1064.86 594.178C1063.79 595.613 1062.69 596.957 1061.58 598.197C1060.5 596.94 1059.43 595.586 1058.37 594.146C1059.57 594.203 1060.78 594.234 1062 594.234C1062.96 594.234 1063.92 594.215 1064.86 594.178ZM1049.82 588.625C1048.19 588.32 1046.64 587.959 1045.18 587.549C1045.59 585.939 1046.08 584.262 1046.67 582.531C1047.21 583.676 1047.77 584.818 1048.37 585.955C1048.84 586.86 1049.33 587.75 1049.82 588.625ZM1046.67 571.469C1046.08 569.738 1045.59 568.061 1045.18 566.451C1046.64 566.041 1048.19 565.68 1049.82 565.375C1049.33 566.25 1048.84 567.14 1048.37 568.045C1047.77 569.182 1047.21 570.324 1046.67 571.469ZM1058.37 559.854C1059.43 558.414 1060.5 557.06 1061.58 555.803C1062.69 557.043 1063.79 558.387 1064.86 559.822C1063.92 559.786 1062.96 559.766 1062 559.766C1060.78 559.766 1059.57 559.797 1058.37 559.854ZM1031.1 577C1031.1 573.724 1034.88 570.243 1041.26 567.755C1042.02 570.753 1043.03 573.86 1044.27 577C1043.03 580.14 1042.02 583.247 1041.26 586.245C1034.88 583.757 1031.1 580.277 1031.1 577ZM1046.43 606.215C1044.65 605.078 1043.7 602.153 1043.7 598.011C1043.7 596.207 1043.88 594.171 1044.25 591.954C1046.95 592.709 1049.85 593.287 1052.89 593.671C1054.71 596.452 1056.63 599.008 1058.58 601.279C1058.15 601.685 1057.71 602.075 1057.28 602.445C1052.72 606.329 1048.77 607.703 1046.43 606.215ZM1080.07 598.687C1080.07 602.828 1079.11 605.755 1077.33 606.892C1075 608.38 1071.04 607.005 1066.48 603.122C1065.83 602.568 1065.18 601.973 1064.53 601.341C1066.53 599.096 1068.49 596.547 1070.36 593.761C1073.55 593.394 1076.59 592.818 1079.41 592.048C1079.85 594.493 1080.07 596.727 1080.07 598.687ZM1092.9 577C1092.9 580.34 1088.98 583.892 1082.37 586.388C1081.56 583.34 1080.51 580.184 1079.22 577C1080.51 573.816 1081.56 570.66 1082.37 567.612C1088.98 570.108 1092.9 573.66 1092.9 577ZM1077.33 547.108C1079.96 548.784 1080.78 554.342 1079.41 561.952C1076.59 561.182 1073.55 560.606 1070.36 560.239C1068.49 557.453 1066.53 554.904 1064.53 552.659C1065.18 552.027 1065.83 551.432 1066.48 550.879C1071.04 546.994 1075 545.62 1077.33 547.108Z" fill="black"/>
<path d="M1068.34 577C1068.34 573.135 1065.5 570.001 1062 570.001C1058.5 570.001 1055.66 573.135 1055.66 577C1055.66 580.865 1058.5 583.999 1062 583.999C1065.5 583.999 1068.34 580.865 1068.34 577Z" fill="black"/>
<path d="M343.807 95.7414C343.807 98.2801 335.534 108 330.456 108C325.379 108 309.24 97.8391 315.369 96.3068C324.563 91.7099 321.499 91.7099 327.628 94.7745C332.705 94.7745 343.807 93.2024 343.807 95.7414Z" fill="black"/>
<path d="M350.612 62.5969L358.273 58L365.934 59.5323H372.063L378.193 67.1937L370.531 71.7906L362.87 68.726L361.337 73.3229L378.193 84.0488L381.257 93.2426L378.193 100.904L372.063 105.501L362.87 107.033L352.144 103.969L346.015 96.3071L349.079 93.2426L355.208 90.178L362.87 96.3071L368.999 93.2426L367.467 90.178L353.676 81.2849L350.612 77.9197L349.079 73.3229L350.612 62.5969Z" fill="black"/>
<path d="M344.482 58H332.224V94.7748H344.482V58Z" fill="black"/>
<path d="M948.5 52.5625H961V101H948.5V52.5625Z" fill="black"/>
<path d="M936 63.5V51H973.5V63.5H936Z" fill="black"/>
<path d="M976.625 58.8125L984.438 52.5625H993.812L1000.06 54.125L1004.75 60.375L995.375 66.625L992.25 61.9375L986 65.0625L1003.19 75.4088L1007.88 83.8125L1006.31 91.625L1000.06 99.4375L990.688 101L981.312 97.875L975.062 93.1875L973.5 88.5L976.625 85.375L981.312 83.8125L987.562 90.0625L992.25 88.5L995.375 85.375L993.812 83.8125L979.75 75.4088L975.062 66.625L976.625 58.8125Z" fill="black"/>
<path d="M925.5 784.562H938V833H925.5V784.562Z" fill="black"/>
<path d="M913 795.5V783H950.5V795.5H913Z" fill="black"/>
<path d="M953.625 790.812L961.438 784.562H970.812L977.062 786.125L981.75 792.375L972.375 798.625L969.25 793.938L963 797.062L980.188 807.409L984.875 815.812L983.312 823.625L977.062 831.438L967.688 833L958.312 829.875L952.062 825.188L950.5 820.5L953.625 817.375L958.312 815.812L964.562 822.062L969.25 820.5L972.375 817.375L970.812 815.812L956.75 807.409L952.062 798.625L953.625 790.812Z" fill="black"/>
<path d="M482.5 782.562H495V831H482.5V782.562Z" fill="black"/>
<path d="M470 793.5V781H507.5V793.5H470Z" fill="black"/>
<path d="M510.625 788.812L518.438 782.562H527.812L534.062 784.125L538.75 790.375L529.375 796.625L526.25 791.938L520 795.062L537.188 805.409L541.875 813.812L540.312 821.625L534.062 829.438L524.688 831L515.312 827.875L509.062 823.188L507.5 818.5L510.625 815.375L515.312 813.812L521.562 820.062L526.25 818.5L529.375 815.375L527.812 813.812L513.75 805.409L509.062 796.625L510.625 788.812Z" fill="black"/>
<path d="M270.5 406.562H283V455H270.5V406.562Z" fill="black"/>
<path d="M258 417.5V405H295.5V417.5H258Z" fill="black"/>
<path d="M298.625 412.812L306.438 406.562H315.812L322.062 408.125L326.75 414.375L317.375 420.625L314.25 415.938L308 419.062L325.188 429.409L329.875 437.812L328.312 445.625L322.062 453.438L312.688 455L303.312 451.875L297.062 447.188L295.5 442.5L298.625 439.375L303.312 437.812L309.562 444.062L314.25 442.5L317.375 439.375L315.812 437.812L301.75 429.409L297.062 420.625L298.625 412.812Z" fill="black"/>
<path d="M51.0439 769.603L61.8693 775.853L37.6505 817.801L26.8252 811.551L51.0439 769.603Z" fill="black"/>
<path d="M34.75 772.825L41 762L73.476 780.75L67.226 791.575L34.75 772.825Z" fill="black"/>
<path d="M72.2762 789.078L82.167 787.572L90.286 792.259L94.9174 796.738L95.8519 804.494L84.6079 805.219L84.2453 799.597L77.2701 799.178L86.9818 816.732L86.8394 826.354L81.58 832.339L72.2611 835.979L63.3609 832.645L56.8044 825.251L53.7355 818.067L54.7261 813.226L58.9949 812.082L63.8356 813.073L66.1233 821.61L70.9641 822.601L75.2329 821.457L74.661 819.323L66.6844 805.014L67.0167 795.063L72.2762 789.078Z" fill="black"/>
<path d="M731.022 112.907C731.961 112.236 733.302 111.163 734.039 110.492C746.898 115.601 751.093 105.616 750.758 101.806C750.387 97.5865 745.148 85.545 727.333 85.5447C726.496 87.508 724.046 88.493 722.02 87.3194C719.534 85.8793 719.534 82.2593 722.02 80.8191C723.952 79.7004 726.268 80.5436 727.205 82.3257C738.021 82.2706 750.146 86.8643 753.537 99.6464C755.982 108.865 745.723 119.611 731.022 112.907ZM737.676 99.8689C739.465 99.658 741.016 98.1645 741.016 96.1407C741.016 93.2604 737.875 91.4505 735.375 92.8906C733.183 94.154 732.914 97.0945 734.569 98.7698C728.634 109.835 715.379 114.161 708.385 109.961C704.512 107.636 700.518 99.3103 709.83 91.6475C709.561 90.7757 709.159 89.3003 708.958 88.2273C692.216 100.844 704.267 120.919 723.144 113.101C728.248 110.987 733.781 107.293 737.676 99.8689ZM717.26 104.152C719.763 105.593 722.909 103.783 722.909 100.902C722.909 98.4985 720.718 96.842 718.539 97.196C704.693 71.3335 733.844 55.9752 737.594 80.4479L740.947 81.4538C738.509 61.768 723.79 63.5693 719.075 67.5563C715.541 70.5445 706.093 81.0592 715.854 99.0702C714.913 100.764 715.382 103.072 717.26 104.152Z" fill="black"/>
<path d="M27.0897 56.6241C28.2381 56.5128 29.9362 56.2542 30.9103 56.0422C39.4917 66.8952 48.1168 60.3462 49.732 56.8787C51.5206 53.0392 53.0042 39.9914 37.5764 31.0839C35.8693 32.3654 33.2555 31.9936 32.0877 29.9642C30.6545 27.4739 32.4645 24.3389 35.3378 24.3348C37.5699 24.3317 39.154 26.2199 39.0751 28.2322C48.4692 33.5923 56.673 43.6331 53.2184 56.398C50.7269 65.604 36.4687 69.781 27.0897 56.6241ZM39.3712 48.6602C41.0262 49.3723 43.1163 48.8544 44.1282 47.1018C45.5683 44.6074 43.7529 41.4692 40.8682 41.4667C38.3376 41.4645 36.6347 43.8768 37.2298 46.1547C26.5579 52.7698 12.916 49.8894 8.95849 42.7552C6.76696 38.8045 7.47054 29.5974 19.3664 27.6172C19.57 26.7281 19.9592 25.2491 20.3215 24.2193C-0.485729 26.7745 -0.0862488 50.1856 20.1704 52.8537C25.6471 53.575 32.2863 53.1426 39.3712 48.6602ZM19.5491 42.1621C20.9967 44.6608 24.6259 44.6662 26.0661 42.1717C27.2679 40.0901 26.199 37.5601 24.1343 36.7768C25.0747 7.45632 57.9992 8.73106 49.0107 31.8002L51.4117 34.348C59.1431 16.0804 45.4954 10.2809 39.4183 11.3761C34.8637 12.1969 21.4249 16.5794 20.8722 37.0576C19.2109 38.0539 18.4629 40.2871 19.5491 42.1621Z" fill="black"/>
<path d="M1285.46 407.799C1286.83 407.665 1288.87 407.355 1290.04 407.101C1300.34 420.124 1310.69 412.265 1312.63 408.104C1314.77 403.497 1316.55 387.84 1298.04 377.151C1295.99 378.688 1292.85 378.242 1291.45 375.807C1289.73 372.819 1291.91 369.057 1295.35 369.052C1298.03 369.048 1299.93 371.314 1299.84 373.729C1311.11 380.161 1320.96 392.21 1316.81 407.528C1313.82 418.575 1296.71 423.587 1285.46 407.799ZM1300.19 398.242C1302.18 399.097 1304.69 398.475 1305.9 396.372C1307.63 393.379 1305.45 389.613 1301.99 389.61C1298.95 389.607 1296.91 392.502 1297.62 395.236C1284.82 403.174 1268.45 399.717 1263.7 391.156C1261.07 386.415 1261.91 375.367 1276.19 372.991C1276.43 371.924 1276.9 370.149 1277.33 368.913C1252.36 371.979 1252.84 400.073 1277.15 403.274C1283.72 404.14 1291.69 403.621 1300.19 398.242ZM1276.41 390.444C1278.14 393.443 1282.5 393.449 1284.23 390.456C1285.67 387.958 1284.39 384.922 1281.91 383.982C1283.04 348.798 1322.55 350.327 1311.76 378.01L1314.64 381.068C1323.92 359.147 1307.54 352.187 1300.25 353.501C1294.78 354.486 1278.66 359.745 1277.99 384.319C1276 385.515 1275.1 388.194 1276.41 390.444Z" fill="black"/>
<path d="M851.515 441.41C852.299 440.268 853.371 438.508 853.928 437.449C870.523 437.932 871.156 424.951 869.214 420.792C867.064 416.186 856.215 404.758 836.126 412.069C835.988 414.627 833.63 416.743 830.863 416.251C827.469 415.648 825.983 411.566 828.195 408.921C829.914 406.867 832.872 406.867 834.661 408.492C846.834 403.991 862.392 404.195 871.462 417.216C878.003 426.608 870.844 442.936 851.515 441.41ZM853.668 423.977C855.599 423.005 856.735 420.684 855.904 418.402C854.722 415.154 850.437 414.402 848.21 417.052C846.256 419.377 847.16 422.803 849.713 424.013C847.562 438.926 834.392 449.244 824.781 447.379C819.459 446.346 811.538 438.598 818.893 426.135C818.233 425.262 817.174 423.763 816.506 422.636C802.806 443.734 824.635 461.425 842.712 444.862C847.6 440.384 852.323 433.947 853.668 423.977ZM832.405 437.186C835.818 437.783 838.623 434.451 837.44 431.203C836.454 428.492 833.304 427.524 830.991 428.817C804.763 405.337 831.331 376.054 845.605 402.111L849.799 401.869C838.97 380.671 823.111 388.743 819.431 395.175C816.672 399.995 810.335 415.729 828.733 432.033C828.367 434.328 829.843 436.738 832.405 437.186Z" fill="black"/>
<path d="M700.046 644.499C701.195 644.388 702.893 644.129 703.867 643.917C712.448 654.77 721.073 648.221 722.689 644.754C724.477 640.914 725.961 627.866 710.533 618.959C708.826 620.24 706.212 619.869 705.044 617.839C703.611 615.349 705.421 612.214 708.294 612.21C710.526 612.207 712.111 614.095 712.032 616.107C721.426 621.467 729.63 631.508 726.175 644.273C723.683 653.479 709.425 657.656 700.046 644.499ZM712.328 636.535C713.983 637.247 716.073 636.729 717.085 634.977C718.525 632.482 716.709 629.344 713.825 629.342C711.294 629.34 709.591 631.752 710.186 634.03C699.514 640.645 685.873 637.764 681.915 630.63C679.724 626.679 680.427 617.472 692.323 615.492C692.527 614.603 692.916 613.124 693.278 612.094C672.471 614.649 672.87 638.061 693.127 640.729C698.604 641.45 705.243 641.018 712.328 636.535ZM692.506 630.037C693.953 632.536 697.582 632.541 699.023 630.047C700.224 627.965 699.155 625.435 697.091 624.652C698.031 595.331 730.956 596.606 721.967 619.675L724.368 622.223C732.1 603.955 718.452 598.156 712.375 599.251C707.82 600.072 694.381 604.454 693.829 624.933C692.167 625.929 691.419 628.162 692.506 630.037Z" fill="black"/>
<path d="M1329.05 824.499C1330.19 824.388 1331.89 824.129 1332.87 823.917C1341.45 834.77 1350.07 828.221 1351.69 824.754C1353.48 820.914 1354.96 807.866 1339.53 798.959C1337.83 800.24 1335.21 799.869 1334.04 797.839C1332.61 795.349 1334.42 792.214 1337.29 792.21C1339.53 792.207 1341.11 794.095 1341.03 796.107C1350.43 801.467 1358.63 811.508 1355.17 824.273C1352.68 833.479 1338.43 837.656 1329.05 824.499ZM1341.33 816.535C1342.98 817.247 1345.07 816.729 1346.08 814.977C1347.52 812.482 1345.71 809.344 1342.82 809.342C1340.29 809.34 1338.59 811.752 1339.19 814.03C1328.51 820.645 1314.87 817.764 1310.92 810.63C1308.72 806.679 1309.43 797.472 1321.32 795.492C1321.53 794.603 1321.92 793.124 1322.28 792.094C1301.47 794.649 1301.87 818.061 1322.13 820.729C1327.6 821.45 1334.24 821.018 1341.33 816.535ZM1321.51 810.037C1322.95 812.536 1326.58 812.541 1328.02 810.047C1329.22 807.965 1328.16 805.435 1326.09 804.652C1327.03 775.331 1359.96 776.606 1350.97 799.675L1353.37 802.223C1361.1 783.955 1347.45 778.156 1341.37 779.251C1336.82 780.072 1323.38 784.454 1322.83 804.933C1321.17 805.929 1320.42 808.162 1321.51 810.037Z" fill="black"/>
<path d="M1486.81 31.6051C1489.37 32.7983 1491.78 31.8194 1492.77 29.6924C1493.79 27.4277 1492.99 25.0299 1490.5 23.8655C1488 22.7012 1485.59 23.604 1484.6 25.8831C1483.55 27.9814 1484.38 30.4695 1486.81 31.6051Z" fill="black"/>
<path d="M1521.14 38.1539C1518.64 36.9895 1516.23 37.8923 1515.24 40.1714C1514.19 42.2697 1515.02 44.7579 1517.45 45.8935C1520.01 47.0866 1522.42 46.1078 1523.41 43.9807C1524.43 41.716 1523.63 39.3182 1521.14 38.1539V38.1539Z" fill="black"/>
<path d="M1512.21 47.1629L1505.24 43.9142L1501.18 46.9011C1499.96 47.8323 1498.75 48.8087 1497.46 49.818L1497.37 49.7749C1497.26 48.3016 1497.18 46.7214 1497.06 45.1269L1496.55 39.8605L1489.3 36.4824L1487.88 35.8212L1482.43 33.2769C1483.5 30.2498 1483.26 27.1368 1482.04 24.6898C1480.61 21.8073 1477.62 19.2869 1472.84 17.0588C1468.12 14.8595 1464.62 13.6009 1462.03 12.8804L1446.26 46.6974L1453.93 50.2767L1459.64 38.0385C1460.31 38.4616 1461.2 38.9545 1462.22 39.4288C1466.81 41.5707 1471.25 42.2865 1475.03 41.0114C1476.45 40.5466 1477.72 39.751 1478.85 38.7006L1469.95 57.7824L1476.08 60.643L1477.69 61.3905L1484.56 64.5961L1488.99 61.2187C1490.18 60.2731 1491.39 59.3727 1492.62 58.3347L1492.78 58.4065C1492.8 59.9579 1492.83 61.5093 1492.97 63.073L1493.38 68.7073L1500.59 72.071L1502.13 72.7897L1508.33 75.679L1519.94 50.771L1513.66 47.8385L1512.21 47.1629ZM1464.95 33.4197C1463.84 32.9022 1463.03 32.4524 1462.46 31.9964L1467.16 21.9161C1467.79 22.0207 1468.94 22.3697 1470.51 23.1028C1474.36 24.8996 1475.67 27.8007 1474.21 30.945C1472.57 34.4593 1469.08 35.3459 1464.95 33.4197ZM1478.82 58.9552L1488.32 38.5787L1490.44 51.9119L1478.82 58.9552ZM1499.92 55.8831L1511.23 49.2591L1501.71 69.6665L1499.92 55.8831Z" fill="black"/>
<path d="M1550.57 70.5687C1546.91 66.834 1545.46 64.9564 1546.48 62.7677C1547.31 60.9797 1549.65 60.231 1553.01 61.7979C1556.37 63.3647 1558.36 65.456 1559.43 66.781L1564.04 61.3138C1562.44 59.4403 1559.98 57.3163 1556.09 55.5051C1548.97 52.1845 1542.72 53.5117 1539.46 57.8463L1543.07 50.1088L1535.33 46.5007L1525.27 68.0795C1522.78 73.4125 1520.06 73.9435 1516.79 72.4198C1515.25 71.701 1514.01 70.8219 1513.1 69.9489L1509.32 75.8042C1510.63 77.0162 1512.8 78.4026 1514.59 79.2363C1522.11 82.7437 1528.39 81.5069 1532.94 71.7657L1537.58 61.8086C1536.63 66.0953 1538.86 70.2495 1542.99 74.2758C1546.43 77.6817 1547.47 79.6314 1546.46 81.7893C1545.41 84.0396 1542.86 84.6116 1539.28 82.9442C1535.98 81.4061 1533.28 78.8322 1531.67 76.8066L1527.11 82.4854C1528.55 84.47 1531.93 87.2841 1535.84 89.1097C1545.25 93.494 1551.96 90.6933 1554.64 84.9287C1556.96 80.1177 1555.56 75.6365 1550.57 70.5687V70.5687Z" fill="black"/>
<path d="M1266.47 523.869C1269.29 523.869 1271.06 521.964 1271.06 519.617C1271.03 517.134 1269.29 515.298 1266.54 515.298C1263.78 515.298 1261.98 517.134 1262.05 519.617C1261.98 521.964 1263.78 523.869 1266.47 523.869Z" fill="black"/>
<path d="M1300.35 515.298C1297.59 515.298 1295.79 517.134 1295.86 519.617C1295.79 521.964 1297.59 523.869 1300.28 523.869C1303.1 523.869 1304.87 521.964 1304.87 519.617C1304.84 517.134 1303.1 515.298 1300.35 515.298V515.298Z" fill="black"/>
<path d="M1296.06 527.236H1288.37L1285.96 531.658C1285.24 533.019 1284.56 534.413 1283.81 535.876H1283.71C1283 534.583 1282.25 533.189 1281.47 531.794L1278.78 527.236H1270.79H1269.22H1263.2C1262.9 524.039 1261.37 521.318 1259.22 519.617C1256.71 517.61 1252.93 516.59 1247.66 516.59C1242.45 516.59 1238.75 516.93 1236.09 517.372V554.685H1244.56V541.182C1245.35 541.284 1246.37 541.352 1247.49 541.352C1252.56 541.352 1256.88 540.128 1259.77 537.372C1260.86 536.352 1261.67 535.093 1262.25 533.665V554.719H1269.02H1270.79H1278.37L1280.96 549.787C1281.64 548.427 1282.35 547.1 1283.03 545.638H1283.2C1283.88 547.032 1284.56 548.427 1285.35 549.787L1288.1 554.719H1296.06H1297.76H1304.6V527.236H1297.66H1296.06ZM1247.42 534.753C1246.2 534.753 1245.28 534.685 1244.56 534.515V523.393C1245.18 523.223 1246.37 523.053 1248.1 523.053C1252.35 523.053 1254.77 525.128 1254.77 528.597C1254.77 532.474 1251.98 534.753 1247.42 534.753ZM1270.79 552.032V529.549L1278.34 540.74L1270.79 552.032ZM1288.61 540.332L1296.06 529.549V552.066L1288.61 540.332Z" fill="black"/>
<path d="M1340.72 532.236C1335.82 530.4 1333.71 529.311 1333.71 526.896C1333.71 524.923 1335.52 523.257 1339.22 523.257C1342.93 523.257 1345.62 524.311 1347.15 525.06L1349.02 518.155C1346.77 517.134 1343.65 516.25 1339.36 516.25C1331.5 516.25 1326.4 520.094 1325.28 525.4V516.862H1316.74V540.672C1316.74 546.556 1314.5 548.189 1310.89 548.189C1309.19 548.189 1307.69 547.917 1306.5 547.509L1305.55 554.413C1307.25 554.957 1309.8 555.298 1311.77 555.298C1320.07 555.298 1325.24 551.522 1325.24 540.774V529.787C1326.2 534.073 1329.97 536.896 1335.41 538.801C1339.97 540.434 1341.74 541.76 1341.74 544.141C1341.74 546.624 1339.67 548.223 1335.72 548.223C1332.08 548.223 1328.54 547.032 1326.23 545.876L1324.5 552.951C1326.64 554.141 1330.89 555.264 1335.21 555.264C1345.58 555.264 1350.48 549.889 1350.48 543.529C1350.55 538.189 1347.39 534.719 1340.72 532.236V532.236Z" fill="black"/>
<g clip-path="url(#clip6_234_102)">
<path d="M162 406.171V363.829C162 362.092 160.843 360.626 159.259 360.158L157.459 361.235L137.485 382.531L136.859 384.488L136.493 386.367L142.722 409.644L143.685 410H158.171C160.286 410 162 408.286 162 406.171" fill="black"/>
<path d="M112 363.829V406.171C112 407.48 112.658 408.635 113.66 409.326L114.888 408.738L136.03 386.102L136.859 384.488L136.89 382.928L131.136 361.036L130.264 360H115.829C113.714 360 112 361.714 112 363.829Z" fill="black"/>
<path d="M136.859 384.488L159.258 360.157C158.905 360.053 158.539 360 158.171 360H130.265L136.859 384.488L136.859 384.488Z" fill="black"/>
<path d="M115.829 410H143.685L136.859 384.488L113.66 409.326C114.298 409.766 115.055 410.001 115.829 410" fill="black"/>
<path d="M130.539 378.951H133.317C134.424 383.128 135.684 386.793 137.09 390.101C138.682 386.38 139.849 382.712 140.837 378.951H143.462C142.286 383.624 140.363 388.334 138.163 393.195H135.841C133.727 388.588 131.928 383.852 130.539 378.951V378.951ZM121.375 371.714H127.552V398.205H121.347V396.163H125.15V373.702H121.375V371.714V371.714ZM152.658 373.702H148.882V396.163H152.684V398.205H146.48V371.714H152.657V373.702H152.658Z" fill="white"/>
</g>
<g clip-path="url(#clip7_234_102)">
<path d="M731 255.171V212.829C731 211.092 729.843 209.626 728.259 209.158L726.459 210.235L706.485 231.531L705.859 233.488L705.493 235.367L711.722 258.644L712.685 259H727.171C729.286 259 731 257.286 731 255.171" fill="black"/>
<path d="M681 212.829V255.171C681 256.48 681.658 257.635 682.66 258.326L683.888 257.738L705.03 235.102L705.859 233.488L705.89 231.928L700.136 210.036L699.264 209H684.829C682.714 209 681 210.714 681 212.829Z" fill="black"/>
<path d="M705.859 233.488L728.258 209.157C727.905 209.053 727.539 209 727.171 209H699.265L705.859 233.488L705.859 233.488Z" fill="black"/>
<path d="M684.829 259H712.685L705.859 233.488L682.66 258.326C683.298 258.766 684.055 259.001 684.829 259" fill="black"/>
<path d="M699.539 227.951H702.317C703.424 232.128 704.684 235.793 706.09 239.101C707.682 235.38 708.849 231.712 709.837 227.951H712.462C711.286 232.624 709.363 237.334 707.163 242.195H704.841C702.727 237.588 700.928 232.852 699.539 227.951V227.951ZM690.375 220.714H696.552V247.205H690.347V245.163H694.15V222.702H690.375V220.714V220.714ZM721.658 222.702H717.882V245.163H721.684V247.205H715.48V220.714H721.657V222.702H721.658Z" fill="white"/>
</g>
<g clip-path="url(#clip8_234_102)">
<path d="M1496.22 484.985L1517.39 448.316C1518.26 446.812 1517.99 444.964 1516.85 443.766L1514.75 443.798L1486.81 452.255L1485.28 453.637L1484.03 455.081L1477.78 478.354L1478.44 479.144L1490.99 486.386C1492.82 487.444 1495.16 486.816 1496.22 484.985" fill="black"/>
<path d="M1474.09 423.316L1452.91 459.985C1452.26 461.119 1452.25 462.448 1452.77 463.547L1454.13 463.652L1483.76 454.62L1485.28 453.637L1486.09 452.301L1492.05 430.465L1491.82 429.132L1479.32 421.915C1477.48 420.857 1475.14 421.485 1474.09 423.316Z" fill="black"/>
<path d="M1485.28 453.637L1516.85 443.766C1516.59 443.498 1516.3 443.269 1515.99 443.085L1491.82 429.132L1485.28 453.637L1485.28 453.637Z" fill="black"/>
<path d="M1454.32 465.216L1478.44 479.144L1485.28 453.637L1452.77 463.547C1453.11 464.247 1453.64 464.829 1454.32 465.216" fill="black"/>
<path d="M1482.58 445.682L1484.99 447.071C1483.86 451.242 1483.11 455.046 1482.68 458.613C1485.92 456.187 1488.76 453.593 1491.5 450.83L1493.77 452.143C1490.42 455.602 1486.4 458.719 1482.06 461.829L1480.05 460.668C1480.52 455.622 1481.33 450.621 1482.58 445.681L1482.58 445.682ZM1478.26 434.832L1483.61 437.921L1470.37 460.863L1464.99 457.761L1466.01 455.992L1469.31 457.893L1480.54 438.441L1477.27 436.553L1478.26 434.832V434.832ZM1504.36 452.195L1501.09 450.307L1489.86 469.759L1493.15 471.661L1492.13 473.429L1486.76 470.327L1500 447.384L1505.35 450.473L1504.36 452.195L1504.36 452.195Z" fill="white"/>
</g>
<g clip-path="url(#clip9_234_102)">
<path fill-rule="evenodd" clip-rule="evenodd" d="M275.833 771.785L275.054 784.996C275.03 785.406 275.405 785.725 275.804 785.632L280.45 784.555C280.884 784.454 281.277 784.839 281.188 785.278L279.807 792.072C279.715 792.529 280.142 792.92 280.586 792.785L283.455 791.908C283.9 791.773 284.327 792.165 284.233 792.622L282.04 803.294C281.903 803.962 282.786 804.326 283.154 803.753L283.4 803.371L296.997 776.095C297.225 775.638 296.832 775.117 296.333 775.214L291.551 776.142C291.102 776.229 290.72 775.808 290.846 775.366L291.951 771.518L294.502 771.051L305.552 769.026C306.571 768.839 307.347 769.93 306.841 770.839L284.293 811.369C283.828 812.206 282.632 812.211 282.159 811.378L259.164 770.843C258.649 769.936 259.421 768.837 260.444 769.02L275.833 771.785Z" fill="black"/>
<path d="M280.729 784.247L275.636 785.377L274.5 784.992C274.5 784.992 274.5 784.99 274.5 784.987L275.636 766.494L275.636 766.49L275.638 766.488L294.099 763C294.101 763.002 294.102 763.005 294.102 763.005L294.102 763.006C294.102 763.006 294.102 763.008 294.101 763.01L290.648 774.552C290.371 775.475 291.226 776.034 292.229 775.847L297.499 774.859C297.499 774.208 297.5 775.209 297.5 775.209C297.5 775.209 297.498 774.549 297.497 774.552L282.922 805L282.218 804.506L282.217 804.506L282 804.5C282 804.498 282.216 804.5 282.217 804.497L284.083 793.141C284.288 792.185 283.915 791.375 282.922 791.666L279.749 792.596L279.748 792.595L279.747 792.593L279.746 792.592V792.591C279.746 792.591 279.746 792.589 279.747 792.587L281.274 785.377C281.468 784.459 281.699 784.031 280.729 784.247Z" stroke="black"/>
</g>
<g clip-path="url(#clip10_234_102)">
<path fill-rule="evenodd" clip-rule="evenodd" d="M1457.83 612.785L1457.05 625.996C1457.03 626.406 1457.41 626.725 1457.8 626.632L1462.45 625.555C1462.88 625.454 1463.28 625.839 1463.19 626.278L1461.81 633.072C1461.71 633.529 1462.14 633.92 1462.59 633.785L1465.46 632.908C1465.9 632.773 1466.33 633.165 1466.23 633.622L1464.04 644.294C1463.9 644.962 1464.79 645.326 1465.15 644.753L1465.4 644.371L1479 617.095C1479.22 616.638 1478.83 616.117 1478.33 616.214L1473.55 617.142C1473.1 617.229 1472.72 616.808 1472.85 616.366L1473.95 612.518L1476.5 612.051L1487.55 610.026C1488.57 609.839 1489.35 610.93 1488.84 611.839L1466.29 652.369C1465.83 653.206 1464.63 653.211 1464.16 652.378L1441.16 611.843C1440.65 610.936 1441.42 609.837 1442.44 610.02L1457.83 612.785Z" fill="black"/>
<path d="M1462.73 625.247L1457.64 626.377L1456.5 625.992C1456.5 625.992 1456.5 625.99 1456.5 625.987L1457.64 607.494L1457.64 607.49L1457.64 607.488L1476.1 604C1476.1 604.002 1476.1 604.005 1476.1 604.005L1476.1 604.006C1476.1 604.006 1476.1 604.008 1476.1 604.01L1472.65 615.552C1472.37 616.475 1473.23 617.034 1474.23 616.847L1479.5 615.859C1479.5 615.208 1479.5 616.209 1479.5 616.209C1479.5 616.209 1479.5 615.549 1479.5 615.552L1464.92 646L1464.22 645.506L1464.22 645.506L1464 645.5C1464 645.498 1464.22 645.5 1464.22 645.497L1466.08 634.141C1466.29 633.185 1465.92 632.375 1464.92 632.666L1461.75 633.596L1461.75 633.595L1461.75 633.593L1461.75 633.592V633.591C1461.75 633.591 1461.75 633.589 1461.75 633.587L1463.27 626.377C1463.47 625.459 1463.7 625.031 1462.73 625.247Z" stroke="black"/>
</g>
<g clip-path="url(#clip11_234_102)">
<path fill-rule="evenodd" clip-rule="evenodd" d="M854.253 681.722L858.797 696.938C858.938 697.41 859.492 697.616 859.903 697.348L864.7 694.226C865.148 693.934 865.749 694.207 865.829 694.739L867.061 702.966C867.144 703.52 867.786 703.786 868.231 703.451L871.107 701.285C871.553 700.949 872.196 701.216 872.278 701.77L874.184 714.705C874.303 715.514 875.449 715.562 875.629 714.765L875.75 714.233L879.887 677.895C879.956 677.286 879.3 676.86 878.777 677.174L873.765 680.183C873.295 680.466 872.691 680.148 872.652 679.598L872.318 674.805L875.003 673.231L886.632 666.413C887.705 665.784 889.028 666.695 888.83 667.928L880.039 722.886C879.858 724.02 878.511 724.517 877.636 723.772L835.07 687.501C834.117 686.689 834.536 685.132 835.765 684.92L854.253 681.722Z" fill="black"/>
<path d="M864.889 693.764L859.609 697.129L858.17 697.161C858.17 697.161 858.169 697.158 858.168 697.155L851.859 675.836L851.858 675.831L851.859 675.828L871.245 664.318C871.248 664.32 871.25 664.322 871.25 664.322L871.25 664.324C871.25 664.324 871.251 664.326 871.251 664.329L872.094 678.761C872.161 679.916 873.354 680.195 874.409 679.572L879.945 676.295C879.678 675.561 880.09 676.689 880.09 676.689C880.09 676.689 879.818 675.947 879.817 675.95L875.878 716.266L874.882 715.998L874.88 715.998L874.634 716.081C874.633 716.078 874.877 715.992 874.877 715.989L872.321 702.417C872.16 701.255 871.407 700.495 870.406 701.231L867.209 703.581L867.208 703.58L867.206 703.579L867.205 703.578L867.205 703.577C867.205 703.577 867.204 703.574 867.203 703.572L865.966 694.815C865.809 693.7 865.894 693.123 864.889 693.764Z" stroke="black"/>
</g>
<path d="M530 45.6472L539.575 43.959L563.144 73.6506L575.137 37.6883L584.712 36.0001L566.038 90.064L530 45.6472ZM542.31 43.4766L550.517 42.0295L559.565 53.3526L564.195 39.6178L572.401 38.1707L562.218 68.3983L542.31 43.4766Z" fill="black"/>
<path d="M153.919 95.4438H163.642L181.697 128.777L199.753 95.4438H209.475L181.697 145.444L153.919 95.4438ZM166.419 95.4438H174.753L181.697 108.166L188.642 95.4438H196.975L181.697 123.444L166.419 95.4438Z" fill="black"/>
<path d="M898.978 508.002L873 522.991V552.995L898.978 568L924.955 553.011V522.998L898.978 508.002Z" fill="white"/>
<path d="M924.956 522.998L916.824 518.305L909.002 522.82L917.133 527.516L924.956 522.998Z" fill="black"/>
<path d="M880.822 527.516L906.798 512.518L898.978 508L873 522.998L880.822 527.516Z" fill="black"/>
<path d="M890.846 542.692L898.977 547.386L907.106 542.692L898.977 537.996L890.846 542.692Z" fill="black"/>
<path d="M917.133 527.516V548.479L898.978 558.962L880.822 548.479V527.516L873 522.998V552.995L898.978 567.993L924.955 552.995V522.998L917.133 527.516Z" fill="black"/>
<path d="M898.977 528.61L890.846 533.303V542.692L898.977 537.997L907.106 542.692V533.303L898.977 528.61Z" fill="black"/>
<path d="M520.978 628.002L495 642.991V672.995L520.978 688L546.955 673.011V642.998L520.978 628.002Z" fill="white"/>
<path d="M546.956 642.998L538.824 638.305L531.002 642.82L539.133 647.516L546.956 642.998Z" fill="black"/>
<path d="M502.822 647.516L528.798 632.518L520.978 628L495 642.998L502.822 647.516Z" fill="black"/>
<path d="M512.846 662.692L520.977 667.386L529.106 662.692L520.977 657.996L512.846 662.692Z" fill="black"/>
<path d="M539.133 647.516V668.479L520.978 678.962L502.822 668.479V647.516L495 642.998V672.995L520.978 687.993L546.955 672.995V642.998L539.133 647.516Z" fill="black"/>
<path d="M520.977 648.61L512.846 653.303V662.692L520.977 657.997L529.106 662.692V653.303L520.977 648.61Z" fill="black"/>
<path d="M314.978 223.002L289 237.991V267.995L314.978 283L340.955 268.011V237.998L314.978 223.002Z" fill="white"/>
<path d="M340.956 237.998L332.824 233.305L325.002 237.82L333.133 242.516L340.956 237.998Z" fill="black"/>
<path d="M296.822 242.516L322.798 227.518L314.978 223L289 237.998L296.822 242.516Z" fill="black"/>
<path d="M306.846 257.692L314.977 262.386L323.106 257.692L314.977 252.996L306.846 257.692Z" fill="black"/>
<path d="M333.133 242.516V263.479L314.978 273.962L296.822 263.479V242.516L289 237.998V267.995L314.978 282.993L340.955 267.995V237.998L333.133 242.516Z" fill="black"/>
<path d="M314.977 243.61L306.846 248.303V257.692L314.977 252.997L323.106 257.692V248.303L314.977 243.61Z" fill="black"/>
<path d="M971.978 331.002L946 345.991V375.995L971.978 391L997.955 376.011V345.998L971.978 331.002Z" fill="white"/>
<path d="M997.956 345.998L989.824 341.305L982.002 345.82L990.133 350.516L997.956 345.998Z" fill="black"/>
<path d="M953.822 350.516L979.798 335.518L971.978 331L946 345.998L953.822 350.516Z" fill="black"/>
<path d="M963.846 365.692L971.977 370.386L980.106 365.692L971.977 360.996L963.846 365.692Z" fill="black"/>
<path d="M990.133 350.516V371.479L971.978 381.962L953.822 371.479V350.516L946 345.998V375.995L971.978 390.993L997.955 375.995V345.998L990.133 350.516Z" fill="black"/>
<path d="M971.977 351.61L963.846 356.303V365.692L971.977 360.997L980.106 365.692V356.303L971.977 351.61Z" fill="black"/>
<defs>
<clipPath id="clip0_234_102">
<rect width="60" height="60" fill="white" transform="translate(858 200)"/>
</clipPath>
<clipPath id="clip1_234_102">
<rect width="50" height="50" fill="white" transform="translate(431 350)"/>
</clipPath>
<clipPath id="clip2_234_102">
<rect width="50" height="50" fill="white" transform="translate(1277 628)"/>
</clipPath>
<clipPath id="clip3_234_102">
<rect width="61.5234" height="70" fill="white" transform="translate(1100 360)"/>
</clipPath>
<clipPath id="clip4_234_102">
<rect width="61.5234" height="70" fill="white" transform="translate(507.941 206) rotate(20)"/>
</clipPath>
<clipPath id="clip5_234_102">
<rect width="61.5234" height="70" fill="white" transform="translate(50 526)"/>
</clipPath>
<clipPath id="clip6_234_102">
<rect width="50" height="50" fill="white" transform="translate(112 360)"/>
</clipPath>
<clipPath id="clip7_234_102">
<rect width="50" height="50" fill="white" transform="translate(681 209)"/>
</clipPath>
<clipPath id="clip8_234_102">
<rect width="50" height="50" fill="white" transform="translate(1476 420) rotate(30)"/>
</clipPath>
<clipPath id="clip9_234_102">
<rect width="49.7462" height="50" fill="white" transform="translate(257 762)"/>
</clipPath>
<clipPath id="clip10_234_102">
<rect width="49.7462" height="50" fill="white" transform="translate(1439 603)"/>
</clipPath>
<clipPath id="clip11_234_102">
<rect width="59.6954" height="60" fill="white" transform="translate(829 678.417) rotate(-20)"/>
</clipPath>
</defs>
</svg>
